<svg id="logocrypto_Image" data-name="logocrypto Image" xmlns="http://www.w3.org/2000/svg" viewBox="0 0 454.1 465.71"><defs><style>.cls-1{fill:#a1c163;}.cls-2{fill:#6b93d7;}</style></defs><path class="cls-1" d="M376.05,708.59a212,212,0,0,0,12.63,62.74c5.6,15.09,13,29.16,23.55,41.48,6.24,7.28,12.18,14.8,19.09,21.51a192.83,192.83,0,0,0,27.55,22.29,190.18,190.18,0,0,0,37.89,19.44,201.75,201.75,0,0,0,38.85,10.36,190.48,190.48,0,0,0,43.06,1.92,181.58,181.58,0,0,0,37.75-6.42A201.06,201.06,0,0,0,644,872.12a189.86,189.86,0,0,0,26.48-14.48,179.15,179.15,0,0,0,26.26-20.84A174.79,174.79,0,0,0,724.19,803a171,171,0,0,0,13.52-26.43c1.08-2.67,2-5.4,3-8.09.55-1.48,1.14-2.95,1.78-4.6,12.12-.51,24-1.45,36.35-1.16a21.48,21.48,0,0,1-.2,3.38,174.86,174.86,0,0,1-9.71,29.06,213.73,213.73,0,0,1-51.28,73.37,218.13,218.13,0,0,1-41.24,30.37,227.3,227.3,0,0,1-23.22,11.45,221.36,221.36,0,0,1-38.77,12.36c-7.95,1.78-16.06,2.85-24.14,3.92a196.89,196.89,0,0,1-34.5,1.14,224.67,224.67,0,0,1-46-6.68,237.85,237.85,0,0,1-44.52-16.22,229.43,229.43,0,0,1-81.52-66.3,230.11,230.11,0,0,1-20.73-32.22,233.3,233.3,0,0,1-15-35.77c-3.65-10.92-6.77-22-8.24-33.46-.67-5.22-1.84-10.38-2.58-15.59-1.42-10-1.34-20.09-1-30.16.28-8,1.82-15.87,3.13-23.75,3.61-21.77,10.67-42.45,20.14-62.31a234.49,234.49,0,0,1,31.21-48.76,237.92,237.92,0,0,1,45.54-42.34,226.35,226.35,0,0,1,42.58-23.92A230,230,0,0,1,519,477.46a223.21,223.21,0,0,1,46.62-5.34A213.33,213.33,0,0,1,620.66,479a216.33,216.33,0,0,1,95.75,53.27,218.73,218.73,0,0,1,30.48,36.3,226.31,226.31,0,0,1,27.22,55.87c2,6.22,3.46,12.63,5.11,19a20.94,20.94,0,0,1,.34,3,11.85,11.85,0,0,1-2.38.55c-10.85.09-21.69.61-32.75.44-1.17-3.39-2.34-6.52-3.34-9.7a152.27,152.27,0,0,0-12.74-28.39,174.87,174.87,0,0,0-20.72-29.34,188.61,188.61,0,0,0-21.56-21.12,185.75,185.75,0,0,0-35.63-23.35,207.41,207.41,0,0,0-29.29-11.89,196.47,196.47,0,0,0-39.87-8.11,170.79,170.79,0,0,0-39.27.25c-6,.76-12,1.6-18,2.75a185.65,185.65,0,0,0-107.77,64.38,167.19,167.19,0,0,0-18.92,27.65,180.62,180.62,0,0,0-12.22,29.14,176.91,176.91,0,0,0-8.39,38.31A206.57,206.57,0,0,0,376.05,708.59Z" transform="translate(-331.5 -467.19)"/><path class="cls-2" d="M448.78,730.43a116.78,116.78,0,0,0,15.41,36,121.61,121.61,0,0,0,77.89,54,111.3,111.3,0,0,0,35.29,1.91,117.08,117.08,0,0,0,56.27-21.42c18-13,31-29.84,39.82-50A123.25,123.25,0,0,0,681,725.58c.15-.78.33-1.55.55-2.56,4.1-.71,27.74-1.16,38.68-.78a23.42,23.42,0,0,1,2.48.37,55.68,55.68,0,0,1-1.3,13,163.37,163.37,0,0,1-32,65.85A156.75,156.75,0,0,1,653.72,834a161.19,161.19,0,0,1-45.19,20.59c-18.43,5.23-37.16,6.47-56.09,5a151.84,151.84,0,0,1-51.59-13.88,160.47,160.47,0,0,1-61.31-49.51,163.4,163.4,0,0,1-18-30c-.74-1.58-1.54-3.13-2.29-4.65a5.77,5.77,0,0,0-1.51-.4q-10.29.48-20.58,1c-1.76.09-3.51.26-5.27.35a2.33,2.33,0,0,1-2.53-1.76c-.59-2-1.12-4-1.67-6a203.52,203.52,0,0,1-5.07-23.9c-.23-1.56-.31-3.15-.47-4.92a20.35,20.35,0,0,1,3-.49q29.76-.12,59.52-.16c.78,0,1.56.13,2.48.21A18.66,18.66,0,0,1,448.78,730.43Z" transform="translate(-331.5 -467.19)"/><path class="cls-2" d="M385.28,656.1c1.59-.89,3.39-.47,5.11-.44,6.39.13,12.79.33,19.18.5a27.67,27.67,0,0,0,2.88,0c1.78-.15,2.81-.88,2.88-2.6.09-2.34,1.15-4.29,2-6.34a163.43,163.43,0,0,1,13.08-25.06,160.62,160.62,0,0,1,14-18.87,166.1,166.1,0,0,1,33.25-29.54,169.89,169.89,0,0,1,26.05-14.24,161.25,161.25,0,0,1,45.19-12.28,145.06,145.06,0,0,1,29.69-.71,157.92,157.92,0,0,1,28.78,4.94Q658.7,565.41,690.63,608a153.37,153.37,0,0,1,25.85,55.73,95.45,95.45,0,0,1,3.14,23.71c0,1.23-.22,2.47-.35,3.76-1.88.79-3.66.5-5.38.51-20.95.08-41.91.1-62.86.19q-66.46.27-132.93.58c-1.87,0-3.81.32-5.49-.38-.24-.5-.5-.78-.5-1q.07-16.79.21-33.56a10.71,10.71,0,0,1,.26-1.7c1.37-1.26,2.88-.9,4.26-.93,11.51-.24,23-.43,34.54-.64l90.2-1.63c7.52-.13,15-.22,22.55-.42,1.36,0,2.9.37,4.23-1a7.1,7.1,0,0,0-.57-1.64,121.07,121.07,0,0,0-23.72-28.1A118.92,118.92,0,0,0,612.34,602a129.34,129.34,0,0,0-31.88-8.54,125.64,125.64,0,0,0-45.28,2.16A120.22,120.22,0,0,0,487,618.26c-16.35,12.83-28.4,28.88-35.3,48.6A102.44,102.44,0,0,0,447,687.4c-.21,1.56-.43,3.11-.68,4.89a23.35,23.35,0,0,1-2.94.37q-30,0-60-.06c-.78,0-1.56-.12-2.82-.22-.63-4.06-.15-7.73.2-11.33C382.12,667.48,383.41,660.81,385.28,656.1Z" transform="translate(-331.5 -467.19)"/><path d="M448.8,720.51c1.06,3.42,2.14,6.58,3,9.78a123.13,123.13,0,0,0,47.73,67.06,111.14,111.14,0,0,0,21.36,11.81c17.58,7.21,35.82,10.56,54.89,8.64a115.32,115.32,0,0,0,30.25-7.21,109.85,109.85,0,0,0,31.56-18.88,112.84,112.84,0,0,0,21.74-24.8,120.88,120.88,0,0,0,14-30.36,66.75,66.75,0,0,0,1.8-6.47c.53-2.65.81-5.36,1.18-8,.17-1.24.29-2.48.41-3.48,1.52-1.27,3-.95,4.41-1,12.8-.13,25.6-.22,38.39-.34,1.44,0,2.88-.15,4.31-.17,2.13,0,3.39.88,3.54,3a44,44,0,0,1-.11,7.17,118.43,118.43,0,0,1-8.29,32.89,176.73,176.73,0,0,1-12.22,25A164.45,164.45,0,0,1,691.26,807a161,161,0,0,1-44.39,36.93,164,164,0,0,1-29.78,13.15,172.46,172.46,0,0,1-30.36,6.86,141.62,141.62,0,0,1-39.71,0,203.07,203.07,0,0,1-21.64-4.19,159.16,159.16,0,0,1-50.38-23,163.15,163.15,0,0,1-44-44.34c-2.74-4.13-5.36-8.35-7.8-12.65s-4.42-8.51-6.73-13c-2.21-1-4.78-.48-7.3-.41s-5.12.14-7.67.33-5.08,0-7.84.88c.31,1.09.49,2,.82,2.83a173.73,173.73,0,0,0,43.91,63.91,183,183,0,0,0,42,29.19,188.82,188.82,0,0,0,54.49,17.8,183.77,183.77,0,0,0,46.38,1.89,189.89,189.89,0,0,0,50-11.08,183.45,183.45,0,0,0,33.5-16.5,180.36,180.36,0,0,0,27.71-21.32A171,171,0,0,0,714,809.8a178.34,178.34,0,0,0,21.91-40.34c.87-2.23,1.42-4.57,2.14-6.86,1.12-3.53,2-3.53,4.74-3.62,9.44-.29,18.87-.68,28.3-1.05,2.08-.08,4.15-.24,6.23-.37,1-.06,1.91-.19,2.87-.2,3.14-.05,4.32,1.17,4,4.42a51.08,51.08,0,0,1-1,6.64,156.74,156.74,0,0,1-7.3,22.8,226.55,226.55,0,0,1-11.27,24.36,218.54,218.54,0,0,1-47.27,60,223.54,223.54,0,0,1-76.45,44.85,232.81,232.81,0,0,1-165.1-5.46,247.72,247.72,0,0,1-25.43-12.39,228.12,228.12,0,0,1-29.08-19.46,231.53,231.53,0,0,1-25.21-22.87,235.86,235.86,0,0,1-21.52-26.36,226.2,226.2,0,0,1-20-34.37c-11-23.46-18.89-47.85-21.76-73.7a233.29,233.29,0,0,1-1.28-31.61,199.76,199.76,0,0,1,9.83-57.41c1.38-4.24,3-8.42,4.71-12.56,5.48-13.49,11.47-26.74,18.95-39.26a254,254,0,0,1,27-37.22,240,240,0,0,1,51.51-44.22,228.65,228.65,0,0,1,54.58-25.57,224.06,224.06,0,0,1,80.45-10.43,222.87,222.87,0,0,1,94.68,27,217.39,217.39,0,0,1,33,22.2,220.66,220.66,0,0,1,22.1,20.58,199.67,199.67,0,0,1,21.25,26.56c3.51,5.34,7,10.7,10.2,16.23a234.52,234.52,0,0,1,14.48,30.25c4.19,10.42,7,21.24,10.26,31.93a26.61,26.61,0,0,1,1,5.18c.29,3.1-.61,4.13-3.6,4.42-.79.07-1.59.06-2.39.06-10.72,0-21.44.1-32.16.11-5,0-5.89-.65-7.69-5.48-1.68-4.49-3.1-9.08-4.91-13.52a177.05,177.05,0,0,0-37-56.71,184.26,184.26,0,0,0-52.17-37.79,186.91,186.91,0,0,0-37.39-13.48,193.13,193.13,0,0,0-71-3.89,182.19,182.19,0,0,0-41.75,10.57,178.79,178.79,0,0,0-83,64.25,162.91,162.91,0,0,0-23.81,49.45c-.26.92-.52,1.84-.7,2.78a13,13,0,0,0-.13,1.87c3.44.84,17.18,1.17,22.56.54a4.14,4.14,0,0,0,.79-1,158.26,158.26,0,0,1,15.42-30.82,169.52,169.52,0,0,1,49.17-49.85,170.19,170.19,0,0,1,47.83-21.76,162.52,162.52,0,0,1,46-5.86,156.51,156.51,0,0,1,138.69,86.15,161.81,161.81,0,0,1,15.42,48.21A62.84,62.84,0,0,1,725,689c0,.64,0,1.28,0,1.92-.66,6.06-1.73,5.72-6.14,5.73l-75.84.2-128.15.38c-1.6,0-3.21,0-4.8-.09a2.52,2.52,0,0,1-2.57-2.38,25.69,25.69,0,0,1-.23-3.82q.08-17.76.19-35.51c0-.64,0-1.28.06-1.91.22-2,1-2.86,3-3,.8-.07,1.6,0,2.4-.07l107-2.1q18.48-.37,37-.81c.79,0,1.57-.13,2.74-.23a9.82,9.82,0,0,0-.78-2.24,98.55,98.55,0,0,0-16.78-19,112.42,112.42,0,0,0-30.78-19.23,123.46,123.46,0,0,0-49.08-9.56,121.45,121.45,0,0,0-40,7.11c-19.23,6.79-35.76,17.79-48.87,33.5C462,651.5,454.35,667,451.6,684.72c-.54,3.47-1.28,6.91-2,10.35a13.59,13.59,0,0,1-.71,2c-1.89,1-3.68.62-5.41.62q-28.56,0-57.12-.1c-1.72,0-3.49-.27-5.08.4-1.1,5.12-.65,16.16.9,22.19,1.52.74,3.3.44,5,.43q28.08-.1,56.16-.26C445.11,720.38,446.84,720.46,448.8,720.51Zm-61.07,34.16c.55,2,1.08,4,1.67,6a2.33,2.33,0,0,0,2.53,1.76c1.76-.09,3.51-.26,5.27-.35q10.29-.52,20.58-1a5.77,5.77,0,0,1,1.51.4c.75,1.52,1.55,3.07,2.29,4.65a163.4,163.4,0,0,0,18,30,160.47,160.47,0,0,0,61.31,49.51,151.84,151.84,0,0,0,51.59,13.88c18.93,1.52,37.66.28,56.09-5A161.19,161.19,0,0,0,653.72,834a156.75,156.75,0,0,0,35.68-32.51,163.37,163.37,0,0,0,32-65.85,55.68,55.68,0,0,0,1.3-13,23.42,23.42,0,0,0-2.48-.37c-10.94-.38-34.58.07-38.68.78-.22,1-.4,1.78-.55,2.56a123.25,123.25,0,0,1-7.55,25.23c-8.78,20.2-21.81,37.08-39.82,50a117.08,117.08,0,0,1-56.27,21.42,111.3,111.3,0,0,1-35.29-1.91,121.61,121.61,0,0,1-77.89-54,116.78,116.78,0,0,1-15.41-36,18.66,18.66,0,0,0-1.59-5c-.92-.08-1.7-.21-2.48-.21q-29.76.06-59.52.16a20.35,20.35,0,0,0-3,.49c.16,1.77.24,3.36.47,4.92A203.52,203.52,0,0,0,387.73,754.67Zm-6.91-73.62c-.35,3.6-.83,7.27-.2,11.33,1.26.1,2,.22,2.82.22q30,0,60,.06a23.35,23.35,0,0,0,2.94-.37c.25-1.78.47-3.33.68-4.89a102.44,102.44,0,0,1,4.61-20.54c6.9-19.72,19-35.77,35.3-48.6a120.22,120.22,0,0,1,48.23-22.65,125.64,125.64,0,0,1,45.28-2.16A129.34,129.34,0,0,1,612.34,602a118.92,118.92,0,0,1,31.73,19.48,121.07,121.07,0,0,1,23.72,28.1,7.1,7.1,0,0,1,.57,1.64c-1.33,1.36-2.87.95-4.23,1-7.51.2-15,.29-22.55.42l-90.2,1.63c-11.51.21-23,.4-34.54.64-1.38,0-2.89-.33-4.26.93a10.71,10.71,0,0,0-.26,1.7q-.14,16.77-.21,33.56c0,.27.26.55.5,1,1.68.7,3.62.39,5.49.38q66.46-.27,132.93-.58c21-.09,41.91-.11,62.86-.19,1.72,0,3.5.28,5.38-.51.13-1.29.33-2.53.35-3.76a95.45,95.45,0,0,0-3.14-23.71A153.37,153.37,0,0,0,690.63,608q-31.85-42.69-83.28-56.57a157.92,157.92,0,0,0-28.78-4.94,145.06,145.06,0,0,0-29.69.71,161.25,161.25,0,0,0-45.19,12.28,169.89,169.89,0,0,0-26.05,14.24,166.1,166.1,0,0,0-33.25,29.54,160.62,160.62,0,0,0-14,18.87,163.43,163.43,0,0,0-13.08,25.06c-.85,2-1.91,4-2,6.34-.07,1.72-1.1,2.45-2.88,2.6a27.67,27.67,0,0,1-2.88,0c-6.39-.17-12.79-.37-19.18-.5-1.72,0-3.52-.45-5.11.44C383.41,660.81,382.12,667.48,380.82,681.05ZM363.05,806.39a230.11,230.11,0,0,0,20.73,32.22,228.23,228.23,0,0,0,81.52,66.3,237.85,237.85,0,0,0,44.52,16.22,224.67,224.67,0,0,0,46,6.68,196.89,196.89,0,0,0,34.5-1.14c8.08-1.07,16.19-2.14,24.14-3.92a221.36,221.36,0,0,0,38.77-12.36,227.3,227.3,0,0,0,23.22-11.45,218.13,218.13,0,0,0,41.24-30.37,213.73,213.73,0,0,0,51.28-73.37,174.86,174.86,0,0,0,9.71-29.06,21.48,21.48,0,0,0,.2-3.38c-12.32-.29-24.23.65-36.35,1.16-.64,1.65-1.23,3.12-1.78,4.6-1,2.69-1.92,5.42-3,8.09A171,171,0,0,1,724.19,803a174.79,174.79,0,0,1-27.5,33.76,179.15,179.15,0,0,1-26.26,20.84A189.86,189.86,0,0,1,644,872.12a201.06,201.06,0,0,1-27.53,9.79,181.58,181.58,0,0,1-37.75,6.42,190.48,190.48,0,0,1-43.06-1.92,201.75,201.75,0,0,1-38.85-10.36,190.18,190.18,0,0,1-37.89-19.44,192.83,192.83,0,0,1-27.55-22.29c-6.91-6.71-12.85-14.23-19.09-21.51-10.56-12.32-18-26.39-23.55-41.48a212,212,0,0,1-12.63-62.74,206.57,206.57,0,0,1,.65-30.66,176.91,176.91,0,0,1,8.39-38.31,180.62,180.62,0,0,1,12.22-29.14,167.19,167.19,0,0,1,18.92-27.65A187.54,187.54,0,0,1,524,518.45c6-1.15,12-2,18-2.75a170.79,170.79,0,0,1,39.27-.25,196.47,196.47,0,0,1,39.87,8.11,207.41,207.41,0,0,1,29.29,11.89,185.75,185.75,0,0,1,35.63,23.35,188.61,188.61,0,0,1,21.56,21.12,174.87,174.87,0,0,1,20.72,29.34,152.27,152.27,0,0,1,12.74,28.39c1,3.18,2.17,6.31,3.34,9.7,11.06.17,21.9-.35,32.75-.44a11.85,11.85,0,0,0,2.38-.55,20.94,20.94,0,0,0-.34-3c-1.65-6.34-3.07-12.75-5.11-19a226.31,226.31,0,0,0-27.22-55.87,218.73,218.73,0,0,0-30.48-36.3,216.72,216.72,0,0,0-150.82-60.12A223.21,223.21,0,0,0,519,477.46a230,230,0,0,0-40.13,12.87,226.35,226.35,0,0,0-42.58,23.92,237.92,237.92,0,0,0-45.54,42.34,234.49,234.49,0,0,0-31.21,48.76C350,625.21,343,645.89,339.37,667.66c-1.31,7.88-2.85,15.74-3.13,23.75-.36,10.07-.44,20.15,1,30.16.74,5.21,1.91,10.37,2.58,15.59,1.47,11.48,4.59,22.54,8.24,33.46A233.3,233.3,0,0,0,363.05,806.39Z" transform="translate(-331.5 -467.19)"/></svg>