<svg xmlns="http://www.w3.org/2000/svg" viewBox="0 0 1114.55 933.74"><defs><style>.cls-1{fill:#0f0c0b;}.cls-2{fill:#171413;}.cls-3{fill:#120f0e;}.cls-4{fill:#fefefe;}.cls-5{fill:#fdfdfd;}.cls-6{fill:#efefef;}.cls-7{fill:#fcfcfc;}.cls-8{fill:#fafafa;}.cls-9{fill:#f3f3f3;}.cls-10{fill:#f7f7f7;}.cls-11{fill:#e2e1e1;}.cls-12{fill:#100d0c;}.cls-13{fill:#110e0d;}.cls-14{fill:#141110;}.cls-15{fill:#1e1b1a;}.cls-16{fill:#0f0d0c;}.cls-17{fill:#0f0c0c;}.cls-18{fill:#1c1918;}.cls-19{fill:#13100f;}.cls-20{fill:#191615;}.cls-21{fill:#393736;}.cls-22{fill:#151211;}.cls-23{fill:#181514;}.cls-24{fill:#1b1817;}.cls-25{fill:#f1f0f0;}.cls-26{fill:#f8f8f8;}.cls-27{fill:#f6f6f6;}.cls-28{fill:#e9e8e8;}.cls-29{fill:#f9f9f9;}.cls-30{fill:#fbfbfb;}.cls-31{fill:#f7f6f6;}.cls-32{fill:#f1f1f1;}.cls-33{fill:#e2e2e2;}.cls-34{fill:#f5f4f4;}.cls-35{fill:#e9e9e9;}.cls-36{fill:#ededec;}.cls-37{fill:#d2d1d1;}.cls-38{fill:#a1c163;}.cls-39{fill:#6b93d7;}</style></defs><g id="Layer_2" data-name="Layer 2"><path class="cls-1" d="M.87,1103.47a78.5,78.5,0,0,1,9.36-15.26c4.6-6.12,11.51-8.16,18.53-9.87s14-3.39,21-5.06a7.79,7.79,0,0,0,4.43-2.89c2.82-3.55,6.35-6.49,8.77-10.39a7.59,7.59,0,0,0,1.3-4.31c-.12-6.59.32-7.11,6.7-8.33,1.13-.22,1-.75.87-1.5-1.05-9.94-2.74-19.74-6.41-29.1a13.32,13.32,0,0,0-2-3.52,54.12,54.12,0,0,1-12.48-33,3.72,3.72,0,0,0-.55-2.59c-5.13,3.08-6.38,2.69-9.23-2.91-3.83-7.52-5.86-15.55-7.2-23.86a238.51,238.51,0,0,1-3.28-32.21A35,35,0,0,1,32,907.09a4.22,4.22,0,0,0,0-2.87c-2.89-8.48-6.38-16.83-7.6-25.77-1.7-12.49-3.09-25-2.88-37.68.16-9.34-.41-18.73,1.22-28,1.6-9.09,5.05-17.25,13-22.76a23,23,0,0,1,9-3.59c2.22-.41,3.33-1.7,4.31-3.66,2.34-4.71,2.75-9.95,4.39-14.84,5-14.72,13.79-26.41,26-36.13,14.31-11.41,30.5-16.22,48.37-15.68a253.63,253.63,0,0,1,30.81,3.13c4.92.75,9.87,1.3,14.79,2,14,2,25.07,8.77,34,19.67,4.33,5.29,8.65,11.28,15.28,13.63,8.87,3.14,14.9,9.54,21,15.93,3.33,3.48,5,8,5.8,12.93,1.5,9-.34,17.69-2.06,26.38-1.39,7-1.42,13.84.88,20.62a7.07,7.07,0,0,0,.74,1.14,48.11,48.11,0,0,0,4.49-13.12c2.31-12.26.46-24.19-2.07-36.15-1.33-6.3-2.48-12.63-4.08-18.88a5.88,5.88,0,0,0-3.78-4.54c-1.95-.73-3.73-1.88-5.65-2.7-10.1-4.37-16.85-12.34-22.79-21.16a5,5,0,0,0-4.12-2.62c-13.28-.69-23.21-7.31-30.34-18.08a177.55,177.55,0,0,1-12.17-21.5c-2.42-5.07-1.59-7.88,3.11-11.2-9.5-7.94-16.06-18.32-23.63-27.85C139.55,643,135,630.51,133.45,617A37.61,37.61,0,0,1,134.7,601c3.54-11.22,6.15-22.75,11.22-33.47a88.15,88.15,0,0,1,10.7-17.91c4.32-5.37,8.15-11.16,12.93-16.15,5.53-5.76,11.2-11.39,16.87-17a9.19,9.19,0,0,1,2.83-1.58,21.33,21.33,0,0,0,5.84-3.45c3.89-3.48,8.5-5.84,12.87-8.6,3.2-2,6.72-3,10.24-4.18,12-4,24.35-6.08,37-5,8.5.74,17,2.82,24.23,7.47A23.41,23.41,0,0,0,290,504.88a2.61,2.61,0,0,1,1.06.23c8.51,5.05,18.66,6.28,26.91,12.15,9.81,7,18.25,14.89,23.09,26.15,1.39,3.25,2.93,6.45,4.54,9.6a75.5,75.5,0,0,1,8.56,30.72c.37,7.48,3.69,13.95,6.66,20.54.5,1.09,1.2,2.05.88,3.29-.28,1.08.41,1.73,1,2.4,6.72,7.8,10.41,17,13.36,26.78,2.61,8.67,5.52,17.33,7.18,26.16,2,10.64,4.19,21.34,4.37,32.3.11,6.89.55,13.77.15,20.66a2.86,2.86,0,0,0,.33,1.55,88.17,88.17,0,0,1,9.2,34.14c.36,4.77,1.67,9.46,2.58,14.37.49-.27.87-.36,1-.6,5.09-6.82,12.46-10.73,19.48-15,4.46-2.69,6.41-6.26,7.53-11.22,1.3-5.76.35-11-1.58-16.24-3.15-8.49-4.53-17.37-6.29-26.16a12.35,12.35,0,0,0-4.15-7.58c-13.13-11.3-21.64-25.27-23.62-42.77-.2-1.81-.41-3-2.9-3.16s-4.39-2.19-5.8-4.47c-2.72-4.38-4.11-9.26-5.57-14.11-1.93-6.42-3.61-12.93-5.69-19.3a51.18,51.18,0,0,0-3.79-7.82c-2.78-5.29-1-10,1.76-14.6a5.3,5.3,0,0,1,4.42-2.31c.59,0,1.71.4,1.59-.79s-1-.36-1.5-.3a2.69,2.69,0,0,1-2.63-1.15c-4-5.66-8.67-11-10.68-17.81a6.89,6.89,0,0,1-.34-1c-.91-9.38-3.07-18.59-3-28.1s-.32-18.94,1.11-28.28c2.62-17.2,6.48-34.17,16.6-48.75,8.45-12.18,18.6-22.88,32-29.76a131.8,131.8,0,0,1,32.6-11.13c.44-.09.89-.18,1.34-.24a9.46,9.46,0,0,0,7.07-4.13c3.37-4.7,8.63-6.77,14.21-7.73,4.5-.78,7.65,1.8,10.24,5a6.41,6.41,0,0,0,5,2.55c4.89.35,9.74,1.28,14.63,1.47,10.06.38,19.71,2.75,29.32,5.45,8.58,2.4,15.73,7.49,22.49,13,9.16,7.43,18.17,15,25.65,24.31a88.76,88.76,0,0,1,18.12,39.95c2.42,12.74,3.54,25.63,5.1,38.47.76,6.27,1.6,12.55,2.47,18.8,1,6.92,4.1,13,5.84,19.6a76.21,76.21,0,0,1,2.33,15.54c.18,3.63,0,7.27,0,10.9.11,7.58-2.19,14.5-5.86,21-3.45,6.09-8.5,6.87-14,2.37-.26-.22-.55-.41-1.18-.87.17,3.81.79,7.28-.12,10.71-1.68,6.28-.67,12.6.15,18.81,1.3,9.91,1.62,19.92,3,29.78,1.87,13.46,2,27.16,5.55,40.4,1.35,5,3.43,9.15,7.45,12.6,5.35,4.61,9.73,10.28,15.22,14.78a54.91,54.91,0,0,1,8.39,8.85c2.12,2.73,3.12,2.75,6,1.15a163.68,163.68,0,0,0,26.21-18,39.37,39.37,0,0,0,7.13-7.82c1.68-2.48,1.08-5.63,1.42-8.47,1-7.93,2.47-15.57,8-21.76.73-.81,1.32-2,2.22-2.33,2.37-1,1.53-2.57,1.58-4.39.17-5.39-4-7.7-7-10.9a142.38,142.38,0,0,1-24.82-35.93c-3.7-7.78-7.68-15.43-11.62-23.1-5.13-10-7.84-20.86-11-31.56a5.35,5.35,0,0,0-2.39-3.41c-6.65-4-9.36-10.37-9.93-17.75-.59-7.76-.63-15.57-2.84-23.14a44.47,44.47,0,0,0-2.64-7.13,32.2,32.2,0,0,1-3.3-13.9,55.68,55.68,0,0,0-1.92-14c-2.11-7.89.57-14.83,7.5-19.19a2.29,2.29,0,0,0,1.14-2.46c-.7-12.49-.08-25.05-1.9-37.5-1.36-9.35-1.77-18.8-2.36-28.23-.78-12.59-1.58-25.19-1.74-37.81A106,106,0,0,1,602.06,368a69.2,69.2,0,0,0,.7-10.83c.07-8,3.47-14.75,7.25-21.38,2.24-3.93,4.79-7.71,7.36-11.44a69.62,69.62,0,0,1,28.81-24.18c18.87-8.71,38.66-12.12,59.25-11.72,13.35.25,26.7.16,40.05.27,16.07.13,29.81,6.45,41.55,17.16,8.72,8,16.84,16.55,26,24.06a47.72,47.72,0,0,1,10.16,12,27.77,27.77,0,0,1,4.31,18.18c-.54,4,.89,6,2.79,8.65,6,8.38,8.57,18.12,10.6,28a60.46,60.46,0,0,1,.94,17.9c-1.3,13.88-.69,27.55,3.81,40.88a2.8,2.8,0,0,1,.21.79c.16,2.55.93,3.23,3.79,2.48,6.31-1.66,14.49,2.73,17.62,8.49,3.9,7.18,5,14.89,5,22.87-.06,7.36.09,14.72-.55,22.06-.31,3.43-1.38,6.76-1.29,10.32,1.08-.24,1.23-1.23,1.68-1.92,6.52-10.06,13.21-20,22.27-28a39.69,39.69,0,0,1,18.3-9c2.58-.57,4.06-1.56,4.79-4.45,2.67-10.7,9.39-18.82,17.6-25.84,5.4-4.62,11-8.87,18.27-10.18,9-1.61,17.64-1.46,26.33,2.14,12.9,5.33,21.89,14.85,29.6,25.9a36.82,36.82,0,0,0,8.31,8.85c8.23,6.05,15.79,12.78,21.32,21.51a2.42,2.42,0,0,0,1,.92c10.67,4.69,16.13,14.14,21.4,23.65,7.61,13.71,11.53,28.81,15.76,43.76,3.08,10.87,6.53,21.67,8.86,32.7,3.33,15.74,6.31,31.63,5.28,47.88-.31,5-.75,10-1.54,14.88-.42,2.64.6,5,.63,7.48a106,106,0,0,1-2.44,22.39c-2.3,11.54-.68,22.7,3.3,33.6,3.85,10.51,7.89,21,13.73,30.57,3.15,5.17,6.51,10.14,8.51,16,2.82,8.21,2.64,16.3.51,24.56-2.71,10.5-7.93,19.64-14,28.53-7.16,10.42-14.3,21-18,33.3-3.63,12.1-2.39,23.58,4.48,34.37a42.77,42.77,0,0,1,6.63,19c.5,5.14-1.56,9.25-4.49,13.27-6.41,8.8-15.19,14.66-24.19,20.37-9.17,5.81-18.6,11.31-26.14,19.37a24.78,24.78,0,0,0-4.88,7.13,105.35,105.35,0,0,0-6.51,18.35c-1,4.17-.28,8.34.09,12.45,1,11.22,1.16,22.49,2.17,33.7s2.48,22.36,4.26,33.48c1.62,10.12,2.47,20.36,4.73,30.4,6.07,26.9,15.79,52.64,25,78.53,1.64,4.61,3.23,9.26,5.21,13.73a5.49,5.49,0,0,1-.41,5.67c-1.2,1.76-3.34,1.34-5.06.94a63.53,63.53,0,0,1-15.5-5.74c-8.43-4.52-17.55-6.59-26.86-8.35-12.6-2.38-25.37-3.2-38.08-4.57-6-.65-12.17-.21-18.18-1.32-6.9-1.29-13.56-3.21-19.5-7.14s-9.07-9.23-8-16.87c1.33-9.7,2-19.48,2.85-29.24a41.91,41.91,0,0,1,2.85-13.09c-2.91,2.78-5.28,5.48-8.08,7.64-7,5.38-13.61,11.13-21,15.92-4.18,2.69-8,5.9-12.15,8.74-6.78,4.66-14.27,6.49-22.32,6.81-6.36.25-12.7.37-19-1-7.61-1.61-14.24-4.81-18.9-11.32a2.26,2.26,0,0,0-2.4-1.24c.4,8.23.69,16.47,1.23,24.69.6,9.21.41,18.42.46,27.64,0,2.68-2,3-4.14,3.26-7.05,1-14.14.64-21.21.64-17.17,0-34.31.64-51.42,2-10.82.84-21.57.25-32.36-.41-4.2-.25-8.48-1.1-12.68.09-1.91.55-2-.29-1.94-1.92.94-24.79,6.32-48.92,10.71-73.2,3.69-20.36,6.42-40.87,8.39-61.46,1.2-12.46,1.47-25,1.89-37.51.44-12.79,1-25.57,1.33-38.36.35-11.73,2.93-23.2,3.91-34.85,1.41-16.75,3.49-33.35,8.81-49.4,3.81-11.49,9.35-21.94,17.78-30.83,7.1-7.49,14.4-14.55,24.2-18.54,4.44-1.81,6.87-5.28,7.83-10.18s3.38-9.51,6-13.8A106.05,106.05,0,0,1,828,805.29c4.49-3.92,5-4.15,2.37-11-3.05-8.15-8-15.27-12.25-22.78a80.06,80.06,0,0,1-6.87-15.5c-.29-.93-.73-1.8-1.1-2.68-1.07.1-1.11,1-1.42,1.57-3.4,6.21-6.53,12.54-9.56,18.95-5.14,10.88-10.34,21.7-16.64,32.06a444.24,444.24,0,0,0-29.45,57.55c-4.14,9.76-8.88,19.27-13.12,29-5.69,13.08-9.4,26.78-12.38,40.7-.23,1.06-.41,2.13-.7,3.18-.38,1.4-1,2.73-2.77,2.3s-1.72-2-1.4-3.35c.94-4.15,1.89-8.3,3-12.41a242.92,242.92,0,0,1,19.49-50.29c5.15-10,9.36-20.44,14.47-30.47,5.23-10.26,10.46-20.52,17-30.05,1.14-1.67,1.25-2.48-.54-4a48.46,48.46,0,0,0-12.2-8c-2.48-1.1-4.48-3.06-6.57-4.81a2.83,2.83,0,0,0-3.66-.31,41.12,41.12,0,0,0-7,4.69c-11.32,9.92-21.9,20.48-28.2,34.5-1.1,2.43-3,2.45-5.24,2.22-7.53-.78-14.69-3.13-22-5-6.79-1.74-13.81-2-20.66-3.38-1.15-.24-2.46.33-3.7.42s-2.41-.58-1.77-1.63c1.77-2.95.88-6,.79-9a70.89,70.89,0,0,0-1.55-13.21,5.79,5.79,0,0,0-1.11-2.63c-2.72,5.41-4.13,11.11-6.16,16.48-5.36-2.69-5.87-7.15-5-12.26.79-4.83,2-9.58,2.85-14.43-2.56,4.87-5.89,9.34-6.84,15-.13.79.45,2.51-1,2.25a3.08,3.08,0,0,1-2.45-2.92,7.68,7.68,0,0,1,.73-3.15c3.67-7.87,6.81-16,11.38-23.44a3.12,3.12,0,0,0,.55-1.75,168,168,0,0,1,3.46-39.45c-1.72,1.33-3.51,2.56-5.13,4-7.47,6.61-16.12,11.42-24.68,16.37-8.33,4.83-16.54,9.85-22.95,17.24-.78.89-1.48,1.83-2.23,2.74-.39.46-.67.94.06,1.28.49.22,1.55-.14,1.22.88-.28.84-1.24.91-2.1.92s-1.37-.27-1.47-1.19a4.88,4.88,0,0,1,.93-3.57A64.73,64.73,0,0,1,622.72,760l1.81-1.09c-3.23-2.4-5.23-5.75-8.3-7.92-8.35-5.89-15.33-13.33-23-20-2.28-2-3.43-4.67-4.29-7.45a103.37,103.37,0,0,1-4.86-25c-.36-6.42-1.72-12.77-2.31-19.17-1-11.48-1.9-23-3.88-34.4-.15,0-.52.07-.59.22-4.38,9-10.29,17.08-15.74,25.44-8,12.22-15.53,24.7-23.23,37.09-3.3,5.31-8.08,8.31-14.05,10a283,283,0,0,1-33.78,7.16c-6.63,1-13.33,1.49-20.06.36a14.33,14.33,0,0,1-8.36-4.18c-5.41-5.7-12-9.6-19-13a103.65,103.65,0,0,1-14.6-9,10.56,10.56,0,0,0-3.91-2c-.06,2.62,1.28,4.84,1.64,7.28,1.14,7.66,3.6,15,5.69,22.4,1.95,6.93.2,13.5-2.24,19.91a9.87,9.87,0,0,1-5.21,5.36,68.38,68.38,0,0,0-22.9,17.95,1.78,1.78,0,0,0-.39,1.86c.74,3.64,1.36,7.31,2.31,10.89.48,1.82-.53,2.37-1.69,2.81-1.66.62-1.42-1-1.6-1.76-3.19-13.4-6.72-26.73-8.16-40.5a48.63,48.63,0,0,0-4-14.45c0,6.12,1,11.53-.13,16.88-1.91,8.85-4.37,17.3-12.29,23.14-6.11,4.51-11.81,9.57-18.5,13.32a26.16,26.16,0,0,1-13.55,3.29c-12.45-.2-23.92-4.66-35.55-8.39a53.89,53.89,0,0,0-9.45-2.49,29.47,29.47,0,0,1-6.33-1.57c-8.68-3.22-17.62-5.59-26.45-8.3-4.29-1.32-8.81-1.18-13.1-2.42-1.82-.52-1.14.84-1,1.58,1.32,5.38,2.46,10.8,3.35,16.27,1.42,8.67,3.46,17.27,2.87,26.16-.38,5.67-.06,11.43-2.12,17,4.3.19,8.36.28,12.41.57,11.84.83,23.69,1.81,35,5.66a115.87,115.87,0,0,1,23.84,10.83,7.39,7.39,0,0,1,1.66,1.39,1.53,1.53,0,0,1,.16,2,1.37,1.37,0,0,1-2,.33c-3.71-2.74-8.29-3.53-12.33-5.55-5.66-2.82-11.39-5.5-17.92-5.59a29.88,29.88,0,0,1-8.52-1.72c-10.25-3.15-20.81-3.71-31.42-4-1.39,0-1.83.57-2.55,1.71-3.31,5.24-2.43,9.86.83,14.86,4.2,6.43,5.13,14,6.07,21.46a66.22,66.22,0,0,1,.7,13.28c-.17,2.31,2.06,3.93,2.37,6.27a108,108,0,0,1-.89,36,130.21,130.21,0,0,0-2.18,27.65c0,4.53.5,9.16-3.55,12.56-.81.68-.66,1.85-.66,2.85a126.11,126.11,0,0,1-4,30.68c-.65,2.56-1.17,5.22-2.59,7.4-3.87,6-3.68,12.74-4.31,19.35-.24,2.42,0,4.88,0,7.48,1.83-.44,3-1.92,4.31-3,1.12-.91,1.57-1.55,3-.2,1.07,1,3.05,1,4.52,1.63a38.38,38.38,0,0,1,12.55,9.41c1.41,1.53,3.37,2.45,4.85,3.74,3,2.55,6.27,4.52,9.23,7,1.51,1.24.67,3.75,1.1,6.14-11.1-7.45-19-18.22-30.91-24.91,1.11,7.35.58,14,.75,20.73.22,8.7-1.13,17.21-2.57,25.69-1.74,10.18-2.78,20.46-4.6,30.61-1.18,6.54-.23,13.4-2.3,19.68-3.32,10.06-2.08,20.3-2.37,30.5a31.86,31.86,0,0,1-.12,3.53,1.76,1.76,0,0,1-2,1.73c-1.31-.2-1.29-1.12-1.16-2.27.77-6.56,0-13.14.51-20.35-2.72,3.46-5.34,6.14-7.16,9.29-2.08,3.61-5.47,6.24-7,10.26-.71,1.92-2.54,1.74-4.11,0-3-3.37-4.78-7.48-7.18-11.21a160.33,160.33,0,0,0-25.48-31.06,2.2,2.2,0,0,0-1.74-.91,56.86,56.86,0,0,1-.95,7.62c-2.78,10.73-9,19.44-16.32,27.55-2.33,2.58-5.71,4.13-7.12,7.61-.32.81-1.45.57-2.21.16-9.8-5.31-19.75-4-29.73-.68-2.92,1-5.72,2.11-8.86,2.41-1.64.15-2.43-.24-2.88-1.62-2-5.92-5.71-10.89-8.67-16.27-2-3.64-5.18-6.28-8.17-9.07-1.26-1.17-2.06-1-2.88.51-1.82,3.35-4.14,6.48-5.53,10-2.67,6.71-6.52,12.73-10.16,18.89a49,49,0,0,0-5.9,15.43c-.41,2.09-1.4,3.91-1.71,6-.21,1.34-.77,2.73-2.38,3s-2.67-.63-3.64-1.87c-3.68-4.72-5.18-10.39-6.7-15.94-2.8-10.21-3.54-20.75-3.42-31.26.13-11.7,2.25-23.19,4.66-34.64a93,93,0,0,0,.75-32.22c-.38-2.65-.85-5.28-1.38-8.52-5.26,7.13-11.19,12.86-15.61,19.87-4.06,6.43-8.18,12.92-14.88,17.1-.54.34-1,.75-1.6,1a1.62,1.62,0,0,1-2.21-.35c-.62-.84-.14-1.54.49-2.14a5.06,5.06,0,0,1,.87-.65c8.12-5,12.44-13.18,18-21-4.6.51-8.5,1.88-12.42,3-5.21,1.45-10.46,2.76-15.54,4.7a22,22,0,0,0-11.32,9.34c-2.45,4-5.45,7.71-7,12.25a7.4,7.4,0,0,0-.74,3.41c.24,1.74-.83,1.91-2.11,1.88Z" transform="translate(-0.87 -288.41)"/><path class="cls-2" d="M15.3,1163.13c.45-10.31.92-19.5,3.43-28.43a9.09,9.09,0,0,1,.66-1.76,2.56,2.56,0,0,1,3.17-1.47c1.57.57.9,2,.53,3-3.18,8.8-5.24,17.8-5,27.23.09,4.15-.09,8.31.67,12.44.16.88,1,2.42-.63,2.75s-1.55-1.19-1.8-2.22C15.29,1170.52,15.47,1166.25,15.3,1163.13Z" transform="translate(-0.87 -288.41)"/><path class="cls-3" d="M324.52,1133c1.58,2.36,2.67,4.4,1.92,6.87-2.51,8.32-5.46,16.48-8.65,24.56a11.64,11.64,0,0,1-.74,1.45c-.54.93-1.26,1.73-2.41,1.25-1.32-.56-1.18-1.78-.69-2.8,2.06-4.26,3.33-8.79,4.81-13.26C320.7,1145.24,322.52,1139.33,324.52,1133Z" transform="translate(-0.87 -288.41)"/><path class="cls-4" d="M824.48,479.16c2.63,3.68,4.79,7.28,4,12.12-1.15,7.33.21,14.65,1.11,21.92a136.22,136.22,0,0,1,1.11,18.16,2.34,2.34,0,0,0,.43,2c1.18-.76,1.32-1.92,1.36-3.14a215.81,215.81,0,0,0-.87-29.1c-.6-5.82.81-11.33,2.8-16.72.81-2.2,1.8-4.33,2.68-6.51,2.35-5.84,7-9.84,11.42-13.94a3.51,3.51,0,0,1,2.76-.95c8.28.78,11.09,2.71,13.39,9.61-.15,0-.33.05-.43,0-5.39-4-7.78-3.93-12.87.46-9.08,7.82-13.37,18-14.85,29.64-.1.8-.33,1.59-.41,2.4a9.31,9.31,0,0,0,1.2,6.43c3.8,6,4.3,12.36,1.75,19-1.87,4.91-2.94,10.26-5.58,14.69-2.41,4-3,8.32-3.68,12.58-.6,4-.05,8.14.06,12.22.28,9.91.52,19.86-1.4,29.6-2.1,10.66-6.59,20.29-14.31,28.25-9.61,9.91-19.43,19.56-30.33,28.11-6.49,5.09-12.26,11.11-18.81,16.11-7.55,5.77-14.62,12.26-23.15,16.7a59.56,59.56,0,0,1-15.7,6,4.88,4.88,0,0,1-5.27-1.78,27.62,27.62,0,0,1-4.07-6.08c-.44-1-1-2.3-2.31-1.51s-.37,1.91.13,2.82c1.58,2.86,4.06,5,6.29,7.68-7.55,1.58-14.85.86-22.19.06-7.59-.82-13.75-4.46-19.32-9.21-13.8-11.8-24.16-26.22-32.07-42.5-4.51-9.31-9.71-18.32-13.65-27.86A205.34,205.34,0,0,1,620.6,568c-1.05-7.06-2.79-14-4-21.07a107.78,107.78,0,0,1-1-20.33q.31-17.15.49-34.31c.05-5.36.11-10.72.05-16.08,0-1.53.31-2.07,1.94-1.84,1.42.19,2.62-.76,3.69-1.56,9.37-7,20.44-7.17,31.34-7.83,8.19-.5,16.27,1.18,24.4,1.84,1.47.12,3.37,1,3.94-1.11s-1.37-2.8-2.76-3.54c-7.78-4.15-15.17-8.9-23.7-11.82-8-2.75-15.63-3.09-23.3-.17-5,1.9-9.48,4.91-13.95,7.86-.52.34-1,.71-1.84,1.3-.14-2.81-.27-5.3-.37-7.78-.81-18.33-1.34-36.64-.48-55a28.88,28.88,0,0,1,10.91-21.9c13.38-11.07,28-20.12,44.53-25.71,6-2,12.25-1.12,18.26.46,14.06,3.69,28.27,4,42.66,2.63,11.69-1.09,23-4.19,34.57-5.88a76.4,76.4,0,0,1,29.7,1.54,3,3,0,0,1,2.36,2.55c1.26,5.13,1.34,10.41,2.13,15.6,1.36,8.88,3.4,17.63,5.63,26.32a416,416,0,0,1,8.51,42.09c1.88,12.62,3.86,25.25,5.5,37.9a99.25,99.25,0,0,1-.32,28.22c-2.5,15.85-5.88,31.52-9.36,47.18-2.39,10.8-3.69,21.8-5.69,32.67-2.18,11.83-3.32,23.85-6.44,35.51-1.18,4.43-2.71,8.78-4.1,13.16-.26.84-1,1.88.18,2.33s1.35-.85,1.71-1.63a98.15,98.15,0,0,0,6.94-22.76c2.13-11.29,4.33-22.57,6.21-33.9,2.45-14.76,6-29.28,9.14-43.89,2.44-11.24,4.87-22.51,6.15-34a108.42,108.42,0,0,0,.28-13.61C824.47,480.69,824.48,479.93,824.48,479.16Z" transform="translate(-0.87 -288.41)"/><path class="cls-4" d="M926.1,953.28a132.53,132.53,0,0,1,4.56,12.65,216.5,216.5,0,0,0,24.39,50.6c7,10.69,7.19,21.63,4.54,33.19-1.53,6.69-2.62,13.41-2.11,20.23.74,10.1-2.28,19.13-6.94,27.85a46.68,46.68,0,0,1-6.07,8.64c-9.8,11.25-21.22,20.56-33.56,28.84-4.29,2.88-8.23,6.23-12.58,9.07a35.25,35.25,0,0,1-17.3,6c-7.53.48-15.13.88-22.47-1.26-5.74-1.68-10.83-4.44-14.32-9.72a41.69,41.69,0,0,0-13-12.27,104.44,104.44,0,0,1-24.1-20.65,32.18,32.18,0,0,1-4.3-7.54c-5-10.5-8.84-21.48-13.07-32.29-3.17-8.08-7.87-15.43-10.7-23.69a111.09,111.09,0,0,1-6.11-32.73c-.52-15.22,2.59-29.73,6.36-44.28,4.14-16,9.09-31.75,14.2-47.43A220.84,220.84,0,0,1,805,890.51c5.64-11.59,5.1-10.55,16.24-10.15a201.56,201.56,0,0,1,34.23,4.4c14.22,3,26.18,9.63,35.53,20.67,8.57,10.11,16.87,20.44,25.11,30.81,2.27,2.85,3.9,6.21,6,9.58-13.7-6-34,.95-42.49,11.46-1.22,1.51-2.29,3.16-1.06,4.88,1.34,1.88,3.43,2.18,5.6,1.14,3.83-1.84,7.27-4.4,11.28-5.94a37.34,37.34,0,0,1,22.14-1.48C920.79,956.61,923.65,956.24,926.1,953.28Z" transform="translate(-0.87 -288.41)"/><path class="cls-4" d="M218.84,971.06c-.33-3-.69-5.91-1-8.88a43.45,43.45,0,0,0-2.73-11.07,7.53,7.53,0,0,0-7.5-5.23c-3.17-.07-6.34-.14-9.52-.13s-5.71-1.64-8.22-3.26c-3.13-2-6.15-4.17-9.24-6.24-1.95-1.31-3.87-.52-5.69.31a41.3,41.3,0,0,1-13.3,3.73,22.77,22.77,0,0,1-10.45-1.11c-4.54-1.71-8.84-1.68-12.72,1.75-2.66,2.34-5.46,4.51-8.16,6.8-5.58,4.75-11.85,7.89-19.43,8.51a25.61,25.61,0,0,1,3.36-5.9,94.39,94.39,0,0,0,6.83-11.44c.57-1.17,1.19-2.54-.38-3.28-1.38-.65-2.47.31-3.1,1.51-4.43,8.44-10,16.2-14.2,24.78a19.79,19.79,0,0,0-2.18,9.43,146.63,146.63,0,0,0,2.53,21.32,22.43,22.43,0,0,1-1.25,12.55c-1,2.36-2.65,2.45-4,1.21-6.5-5.85-14.51-9.62-21-15.56a44.55,44.55,0,0,1-13.35-22.33A251.5,251.5,0,0,0,53.46,936.3c-4.48-11.15-6-23.16-8.13-34.94-1.56-8.74-2.23-17.61-.49-26.53,1.15-5.92,3-11.36,7.31-15.79a48.91,48.91,0,0,0,4.7-6c3.37-4.73,1.62-9.37-.54-13.87a25,25,0,0,0-3.24-4.71,8.78,8.78,0,0,1-1.82-8.19,63.69,63.69,0,0,1,17.92-29.69c2.53-2.38,4.64-5.09,7.06-7.53,10.74-10.8,22-20.88,36.69-26.23a65.23,65.23,0,0,1,13-3c7.87-1.16,15.76-2.64,23.75-2.72,15.33-.17,29.76,4,43.84,9.62,3.27,1.31,5.79,3.65,8.27,6.1a106.62,106.62,0,0,1,20.9,29.05c3.08,6.26,4.17,13.1,5.79,19.79,1.77,7.32,3.1,14.83,7.76,21a40.37,40.37,0,0,1,4.46,7.78c3.23,7.17,3.34,14.94,4.34,22.55,1.83,13.82,0,27.29-3.31,40.7-2.8,11.41-2.74,23-1.71,34.67.83,9.4,1.27,18.81,1.41,28.25a19.32,19.32,0,0,1-7.6,16.29c-3.37,2.73-6.26,6.05-9.38,9.09-.76.74-1.59,2-2.61,1.67s-1-1.84-1.17-2.86a63.08,63.08,0,0,1-.94-10.28c-.15-7.61,2.9-14.47,4.7-21.61,1.15-4.58,1.86-9,.87-13.67-1.37-6.44-5.87-10.48-10.91-14-3.41-2.4-7-4.52-10.47-6.86-4-2.7-7.74-5.6-9.67-10.26-.22-.53-.75-1.16-1.48-.89a1.27,1.27,0,0,0-.78,1.55,9.12,9.12,0,0,0,1.39,3.2c4.11,6.12,10,10.19,16,14.15a41.21,41.21,0,0,1,8.4,6.86c4.48,5.06,5.28,10.75,3.35,17-.53,1.72-1.18,3.41-1.77,5.12Z" transform="translate(-0.87 -288.41)"/><path class="cls-4" d="M1046.59,608a21.1,21.1,0,0,1-1.22-2.6c-2.3-7.18-7.09-12.18-13.59-15.71a104.81,104.81,0,0,0-22-8.62c-4.47-1.25-7.39.22-9.07,4.48-.4,1-.76,2-1.12,3-1.2,3.43-.27,4.89,3.27,5.34q7.67,1,15.3,2.09a41.65,41.65,0,0,1,24.28,12.55c1.35,1.38,2.22,3.54,4.65,3.65.69,0,.38.69.4,1.07.58,12.06,1.25,24.11-.45,36.15-1.23,8.7-2.65,17.39-5.72,25.62a50.09,50.09,0,0,1-10.73,17.73c-2.94,3-5,6.25-5.51,10.57a23.8,23.8,0,0,1-3.25,8.57c-5,9-10.08,18-17.27,25.6s-13.33,16.27-20.08,24.32c-6.57,7.85-15.57,11.92-25.43,14a72,72,0,0,1-10.79,1.2c-8.29.48-15.16-3.31-21.93-7.45A206.27,206.27,0,0,1,903.44,753c-11.77-9.63-19.7-22.11-25.34-36.07-2.4-5.91-5.25-11.66-6.34-18.09-1.13-6.64-1.9-13.24-.93-20a41.87,41.87,0,0,0-.41-15.09c-1.65-7.59-.36-15.21,1.14-22.64,3.05-15.11,5.86-30.29,10.31-45.08a40.13,40.13,0,0,1,7.94-15.29c2.37-2.72,4.29-5.84,6.44-8.76a29.74,29.74,0,0,1,3.54-4.47c10-9,14.27-20.83,16.34-33.69.79-4.89,1.79-9.78.32-14.73-.29-1,.62-1.44,1.18-2a40.4,40.4,0,0,1,10.83-7.12,79.52,79.52,0,0,1,24.48-6.45c6.59-.68,13.09,1.2,18.87,4.14,8.4,4.27,17.46,5,26.43,6.56,5.81,1,12,1.05,16.9,4.85,11.1,8.59,20.54,18.46,25.61,32a79.31,79.31,0,0,1,4.62,24.12c.53,10.42,1.14,20.84,1.7,31.26,0,.43,0,.87,0,1.31Z" transform="translate(-0.87 -288.41)"/><path class="cls-4" d="M472.22,492.26c9.24,1.19,19.32-.51,29,1.95,10.44,2.66,21.41,3.34,31.4,7.55,5.9,2.48,12.11,4.7,17.19,8.67,5.27,4.12,11.07,7.57,15.84,12.34a4.59,4.59,0,0,1,1.53,3.56c0,7.7.65,15.38,1.19,23.06a6.65,6.65,0,0,0,.18,1.62c3.06,8.78,3.32,18,4,27.1.67,8.75,2.59,17.36,3.15,26.07.38,5.87,2.79,11.19,3.24,17A29.12,29.12,0,0,1,576.84,635c-4.52,10.65-10.7,20.35-17.18,29.92-5.54,8.16-11.15,16.32-15.91,25-3,5.49-6.57,10.63-9.88,15.92a15.43,15.43,0,0,1-9.07,6.6,289.79,289.79,0,0,1-36.64,8,104.66,104.66,0,0,1-14.39.8c-5.18,0-8.86-2.91-12.45-5.89a106.88,106.88,0,0,0-19-12.63,109.41,109.41,0,0,1-17.72-12.14,100.29,100.29,0,0,1-15.26-15c-7.4-9.12-11.12-19.57-12.58-31A354.24,354.24,0,0,0,389,604.18c-1.8-7.23-4.72-14.08-6.78-21.23a131.3,131.3,0,0,1-4.59-29.46c-.4-7.33-1.22-14.65-1.38-22a7.17,7.17,0,0,1,1.25-4.31,58.68,58.68,0,0,1,25.29-21.47,144.42,144.42,0,0,1,43.08-11.84C454.35,492.81,463,492.78,472.22,492.26Z" transform="translate(-0.87 -288.41)"/><path class="cls-4" d="M337.13,584.6l.09.51c-.45,1.4-1.25.4-1.54.07-4.8-5.48-10.79-4.81-16.86-3.22s-12.16,3.69-17,8.08a14.68,14.68,0,0,0-2.67,3.06c-1.8,2.83-1.85,4.68-.18,6.74a6.92,6.92,0,0,0,7.64,2.07,8.91,8.91,0,0,0,2.61-1.45c4.23-3.6,9.49-5.65,13.82-9.16a7,7,0,0,1,6.77-.74,33,33,0,0,1,5.83,2.91c2,1.19,3.2.62,3.5-1.47.09-.67-.36-1.61.53-1.91s1.5.49,2.08,1a94.35,94.35,0,0,1,13.47,15.65c2.6,3.71,5.44,7.24,8.09,10.9a33,33,0,0,1,6,13c3,10.34,5.87,20.7,8.93,31,1.57,5.27.81,10.94,2.62,16.07,2.22,6.28.43,11.85-2,17.38-2.86,6.41-6.9,12.16-11.09,17.73s-11.85,5.52-16.4.27c-3.18-3.66-6.07-7.52-7-12.55a1.72,1.72,0,0,1,.4-1.75c1.17-1.38,2.4-2.72,3.46-4.2a2.31,2.31,0,0,1,3-.87c3.54,1.12,7.11,2.16,10.69,3.15a22.76,22.76,0,0,0,4.52.9c2.73.17,4.67-1.5,4.56-4.2-.28-7-1.73-13.61-6.74-19-2.22-2.38-5.18-3-8-3.68a158.33,158.33,0,0,0-27.64-4.39c-2.08-.14-4.15-.42-6.23-.54a3.38,3.38,0,0,0-3.51,1.58c-.72,1.33-.08,2.5.78,3.48a163.74,163.74,0,0,1,11.8,16c.34.5,1.42,1.18.33,1.68-3.89,1.8-7.25,4.82-11.75,5.29-.32-.89.4-1.2.81-1.56a7.47,7.47,0,0,0,2.38-6.92,22.73,22.73,0,0,0-6.32-13.26c-1.72-1.77-3.24-1-4.68.44-5.23,5.28-10.19,10.89-15.79,15.75a39.86,39.86,0,0,0-10.18,14.21c-2.63,5.8-1.86,11.37.61,16.82,1.26,2.8,2.83,5.47,4.18,8.24,1.53,3.13,3.6,3.59,6.33,1.42a21.48,21.48,0,0,0,5.29-7.19,13.35,13.35,0,0,0,1.09-2.49c1.36-4.76,4.05-7.18,9.43-6.92,3.12.15,6.32-1.26,9.48-2,.82-.2,1.83-.54,1.89.64.2,4.56,3.29,8,4.58,12.11,1.42,4.52,3.06,9,1.52,13.79-1.45,4.49-4.14,8-8.79,9.63-5.48,1.87-11,3.77-16.53,5.31-4.3,1.18-8.61-.17-12.85-1-8.56-1.59-16.69-4.81-25.1-7-9.69-2.54-18.85-7-27.89-11.45-7-3.49-11.57-9.54-16.86-14.81-3.26-3.23-5.76-7.21-8.82-10.65-2.17-2.45-4.72-4.59-8.17-5a2.6,2.6,0,0,1-1.87-1.37,92.1,92.1,0,0,1-15.27-33.42,38.17,38.17,0,0,1,0-14.37c1-6.29-.53-12.09-2.28-17.9-2.38-7.9-5.49-15.52-8.59-23.16-2.77-6.84-3.55-14.14-3.89-21.45-.12-2.52-.84-5-.44-7.57,1.42-9.18,7.55-15.22,13.81-21.19,7.24-6.91,16.56-9.48,25.73-12.43,8.3-2.67,17-2.91,25.46-4.21,3.23-.49,6.46-1,9.68-1.49a7.18,7.18,0,0,0,6.25-6,5.76,5.76,0,0,1,4-4.7c12.24-3.6,24.63-6.21,37.5-5.63a6.55,6.55,0,0,1,3.52,1.22,102.52,102.52,0,0,1,13.2,10.47c4.42,3.44,7.28,8.27,10.88,12.43,2.3,2.67,4.44,5.51,6.49,8.4a6.11,6.11,0,0,1,.46.67c3.52,5.55,4.35,12,6,18.15C336.83,580.47,337.57,582.48,337.13,584.6Z" transform="translate(-0.87 -288.41)"/><path class="cls-4" d="M984.57,767.92c-3.9,10.87-6.36,21.19-6.25,32a30.64,30.64,0,0,0,1,8.59c1.42,4.66-.51,8.93-1.28,13.32-.38,2.14-1.1,4.2-1.57,6.32-1.13,5-1.31,9.93,1.07,14.81,2.58,5.28,2.77,10.63-1.06,15.56-13.41-11.28-29.08-18.69-45.2-25.13-9.42-3.77-19.43-4.88-29.58-4.46-2.54.11-5.21-.56-7.6,0-8,1.9-15.42-1.66-23.15-2-1.73-.07-2.22-2.16-1-3.9a77.39,77.39,0,0,0,7.4-12.29c2.57-5.57,2.92-11.72,4.32-17.59,2-8.57,2.39-17.34,2.9-26.11.52-9.14.86-18.26.82-27.95,1.24,1.62,2.22,2.84,3.14,4.1,8,10.93,19.07,18.24,30,25.68a126.31,126.31,0,0,0,15,8.71c8.26,4.13,16.73,4,25.46,2.46C968.41,778.36,976.64,774.25,984.57,767.92Z" transform="translate(-0.87 -288.41)"/><path class="cls-4" d="M822.54,624.48c-.36,2.81-1.53,4.48-2.32,6.27-6,13.69-12.45,27.15-21.15,39.43-2.91,4.11-5.09,8.73-7.6,13.12-.33.55-.81,1.22-.09,1.66s1.09-.37,1.46-.85a14.8,14.8,0,0,0,1-1.57c6.77-11.78,15.56-22.3,21.74-34.43,4.35-8.55,8.73-17.11,12.26-26.05.56-1.42,1.18-2.81,1.9-4.53.88,1.67.64,3.13.69,4.51a161.55,161.55,0,0,1-.85,25.55c-.63,5-3.08,9.28-6,13.21-7.1,9.54-16.34,16.94-25,25-9.5,8.85-20,16.47-29.6,25.2-6.3,5.74-13.45,10.47-19.57,16.48-8.34,8.18-17.48,15.5-25.37,24.18a61.53,61.53,0,0,1-9.87,9.34c-1,.72-1.9,1.46-3,.15-4.72-5.7-11.32-9.06-17.27-13.09-7-4.77-9-11.13-9.42-19-.47-9.49-.68-19-2.7-28.38-.55-2.53-1.82-4.91-1.73-7.79a10.92,10.92,0,0,1,1.35.64c8.91,6.13,19,7.24,29.4,6.75a18.36,18.36,0,0,1,2.45-.12c12.21,1.19,23-2.95,33.14-9.11,11.41-7,21.57-15.61,31.61-24.4,5.26-4.59,10.61-9.09,16-13.56A232.33,232.33,0,0,0,820,627.43Z" transform="translate(-0.87 -288.41)"/><path class="cls-4" d="M828.45,661.44a141.8,141.8,0,0,1-11.21,34.74c-2.58,5.66-5.26,11.27-7.89,16.91a33,33,0,0,0-2.8,12,95.25,95.25,0,0,0,0,15.48c.07.72-.15,1.57.15,2.16,1.87,3.65.05,6.58-1.66,9.58-4.55,8-8.09,16.43-12.17,24.62-4.28,8.57-7.51,17.72-13.5,25.41-1.11,1.42-1.71,1.5-2.82.3-2.65-2.87-6.1-4.5-9.57-6.1a8.51,8.51,0,0,1-1.88-1.08c-8.09-6.52-18-9.56-27-14.43-8.28-4.5-17.2-6.63-26.43-7.83-.49-.06-1.2.2-1.42-.44s.47-1.09.87-1.55c3.88-4.45,8.14-8.58,12.4-12.61,6.52-6.16,12.07-13.26,19.18-18.89,6.45-5.1,11.81-11.53,18.31-16.65,8.56-6.74,16.52-14.22,25-21,11.66-9.3,22.54-19.41,33.22-29.76C822.47,669.15,825.16,665.34,828.45,661.44Z" transform="translate(-0.87 -288.41)"/><path class="cls-4" d="M223.94,1154.21c-2.2-2.81-3.68-6.15-5.72-9.14-9.51-14-19-28-33.86-37-7.7-4.66-15.79-8.48-25.12-9.12,4.23-2.3,8.55-4.3,12.59-6.82,12.15-7.58,24.19-15.22,34.68-25.19,5.86-5.56,11.16-11.65,17.11-17.08,4.57-4.17,8.89-9.23,15-11,4.28-1.24,7.09-3.61,9.74-6.71.73-.85,1.71-1.74,2.75-1.45s.66,1.69.72,2.59c1.1,15.46-.55,30.7-3,46-2,12.68-4.16,25.37-5.21,38.21-.81,9.92-4.28,18.74-11.19,26.16C229.37,1146.83,227.62,1151.08,223.94,1154.21Z" transform="translate(-0.87 -288.41)"/><path class="cls-4" d="M139.38,1099.25c-2.62,1.84-5.39,2.49-7.9,3.61-13.06,5.84-23.55,14.92-32.5,25.85-3.38,4.13-5.58,9.1-7.88,13.93a103.47,103.47,0,0,1-6.81,13c-5.2,7.88-8.05,16.75-10.48,26.05-1.72-1.15-2.4-2.89-3-4.57a102,102,0,0,1-6-26.66c-1.65-16.2.67-32,3.84-47.73a89,89,0,0,0,1.23-24.62c-.47-5.87-1.43-11.65-2.48-17.44a77.89,77.89,0,0,1-.68-8.8,2.22,2.22,0,0,1,1.71-2.45c1.31-.43,3.1-1,3.81.07,1.4,2,3.43,3,5.38,4,8.63,4.36,15.62,10.79,22.73,17.16,7.71,6.9,15.77,13.4,23.65,20.1C128.41,1094.56,133.65,1097,139.38,1099.25Z" transform="translate(-0.87 -288.41)"/><path class="cls-4" d="M111.1,984.31c10,4.1,19.56,8.37,29,12.92a32.83,32.83,0,0,0,13.12,2.92,128.16,128.16,0,0,0,16.28-.12c10.73-.86,20-4.12,26.72-13.34,3-4.12,6-8.15,8.25-12.71a3.12,3.12,0,0,1,.71-1.14c.57-.43,1.4-.64,1-1.6a2.66,2.66,0,0,0-2.25-1.75,24.57,24.57,0,0,0-3.53.19,23.66,23.66,0,0,1-8.54-1A69.7,69.7,0,0,0,171,965.9a146.55,146.55,0,0,0-35.26,5.61c-5.78,1.7-11.65,3.21-17.49,4.75a19.74,19.74,0,0,0-6.63,3.45c.65-2.36,1.36-4.33,3.74-4.59,5.42-.6,10.14-3.15,15-5.14s9.48-4.13,14.25-6.09c3.55-1.46,7.06-2.34,11-.8,3.66,1.43,7.39,1.42,10.62-1.68,4.44-4.26,9.8-3.79,15.21-2.45,4.49,1.12,9.14,1.24,13.64,2.45,7.13,1.92,12.83,5.27,14.32,13.1a37,37,0,0,1,.24,13.28c-1.63,9.29-3.14,18.58-7,27.35a62.58,62.58,0,0,1-13.61,19.15c-4.16,4.18-8.79,7.93-14.47,9.94-8,2.86-16,3.48-24-.56-11.08-5.6-20.32-13.63-29.4-21.88-3.36-3.06-4.28-7.27-4.74-11.58-.49-4.68-.71-9.4-1.48-14-.35-2.16-1.75-4.13-2.58-6.22C111.71,988.22,110.88,986.48,111.1,984.31Z" transform="translate(-0.87 -288.41)"/><path class="cls-4" d="M748.44,791.07c-13,12-25.4,24-33.18,39.86a2.07,2.07,0,0,1-2.47,1.35,68.68,68.68,0,0,1-14.87-3.06c-8.49-2.48-17.25-3.1-25.92-4.34-1.75-.25-2.36-.82-2.36-2.49a112.16,112.16,0,0,0-1.31-14.63,19.94,19.94,0,0,0-2.63-8.49,2.7,2.7,0,0,1-.17-3c3.22-6.65,7.54-12.48,13.68-16.61a26.71,26.71,0,0,1,17.7-4.15c10.17,1,20.46,2.1,30.14,5.55A154.71,154.71,0,0,1,748.44,791.07Z" transform="translate(-0.87 -288.41)"/><path class="cls-4" d="M184.8,1118.1c.18,5.31-2.72,10.87-5.79,16.34a75.77,75.77,0,0,1-15.18,18.75,2.26,2.26,0,0,1-2.83.53c-9.67-3.81-19.32-2.86-28.9.39a69.71,69.71,0,0,0-6.57,2.55c-1.54.7-2.18.32-2.85-1.2a131.15,131.15,0,0,0-11-19.34,25.71,25.71,0,0,0-6.4-6.63c-1.17-.85-1.29-1.31-.33-2.43,5.3-6.21,11.73-11,18.55-15.43,6.41-4.15,13.75-6.52,20-10.86a2.42,2.42,0,0,1,2.32-.25c2.49.86,5.34-.4,7.75,1.7,1,.9,2.75-.75,4.39-.66a40.42,40.42,0,0,1,15.4,3.92c2.21,1,4.37,2.22,6.54,3.34C184.76,1111.35,184.84,1111.48,184.8,1118.1Z" transform="translate(-0.87 -288.41)"/><path class="cls-4" d="M68.94,1021.32c4.6,4.47,9.2,8.6,13.42,13.08,11.32,12,25,20.53,39.64,27.76,7.15,3.53,14.14,7.31,21.94,9.4,17.26,4.62,32.76,1,47-9.29,2.86-2.07,6.08-3.64,8.93-5.73a165.71,165.71,0,0,0,26.66-25.14c5.3-6.08,10.81-11.94,16.89-18.3-.85,6.53-.75,12.4-3.3,17.84a7,7,0,0,1-3.84,3.92c-4,1.67-6.85,5-10.32,7.44-6.39,4.49-10.75,11-16.45,16.2-8.92,8.11-17.84,16.17-28.24,22.49-5.57,3.39-11.18,6.74-16.68,10.24-15.5,9.85-28.7,4.11-39.1-4.08-8.48-6.68-16.87-13.54-24.66-21a116.58,116.58,0,0,0-24.18-17.48,3.09,3.09,0,0,1-1.54-2.35c-1.37-6-2.17-12.12-3.74-18.09C70.78,1025.88,69.55,1023.75,68.94,1021.32Z" transform="translate(-0.87 -288.41)"/><path class="cls-4" d="M408.46,498.49a5.35,5.35,0,0,0,.37-4.34c-1.65-4-.68-8-.48-12.07.07-1.28.85-1.78,1.85-2.4,10.95-6.84,22.95-10.31,35.62-12.44a209.65,209.65,0,0,1,34.34-3.4c5.49,0,10.82,1.05,16.2,1.87a137.14,137.14,0,0,1,26.71,7.22c1.07.39,1.63.73,1.63,2,0,5.69,1.3,11.31.5,17.07-.26,1.92-.7,2.17-2.41,1.91a160.52,160.52,0,0,1-17.8-3.81,52.26,52.26,0,0,0-12.37-1.78c-5.72-.13-11.43-.47-17.14-.52A240.15,240.15,0,0,0,429.24,492,89.74,89.74,0,0,0,408.46,498.49Z" transform="translate(-0.87 -288.41)"/><path class="cls-4" d="M410.46,475.46c.35-5,.74-9.47,3.42-13.14,9.26-12.7,21.85-20.49,37.05-23.95,9.09-2.07,18.37-3.74,27.72-2.77s18.56,2.7,26.74,8.12c5.05,3.34,10.55,5.86,14.59,10.68,3.11,3.71,3,8.23,4.17,12.46.34,1.24-.57,1-1.32.75a34.22,34.22,0,0,1-5.18-1.6c-6.74-3.33-14.17-3.64-21.33-5.16-10.61-2.24-21.32-1.57-32-1.09-8.15.37-16.06,2.61-24.11,3.78A69,69,0,0,0,410.46,475.46Z" transform="translate(-0.87 -288.41)"/><path class="cls-4" d="M860.68,506.82a9.88,9.88,0,0,0-2.7-8.25c-.91-1-2-1.95-3.26-1s-.75,2.35.21,3.29c2.89,2.83,2.8,6.3,2.36,9.89-.3,2.52-.48,5.06-.85,7.57-.85,5.85-5.72,10-10.91,9.61-1.09-.09-1.68-.12-1.42-1.45,1.35-6.8-1-12.65-4.79-18.09a2.39,2.39,0,0,1-.44-2c1.38-5.77,1.56-11.8,4-17.32,2.71-6,6.4-11.11,11.93-14.85,3.58-2.42,5.53-1.45,8,2.22a11.65,11.65,0,0,1,1.81,5.38c.4,4.51.84,9,1.2,13.53.1,1.21.08,2.44,1.45,2.93.83.3.75.88.73,1.52-.54,13.44-1.39,26.84-6,39.65a25.81,25.81,0,0,1-8,11.47c-2.58,2.12-4.72,4.75-7.8,6.31a15.52,15.52,0,0,1-8.38,1.78c-1.91-.16-2.93-1-2.58-3.21A57.07,57.07,0,0,1,838.44,544c1.6-4.15,3-8.35,4.49-12.55.43-1.26.84-1.75,2.22-1.62a12.76,12.76,0,0,0,14.11-10.32A54.34,54.34,0,0,0,860.68,506.82Z" transform="translate(-0.87 -288.41)"/><path class="cls-4" d="M656.4,807A38.41,38.41,0,0,1,658,796.82c2.17-8.38,3.76-16.83,3.29-25.55-.68-12.64,2.29-24.86,4.24-37.21a189.46,189.46,0,0,0,2.19-19.71c.26-4.91,2.27-8.82,5.26-12.51-.61,2.27-1.57,4.52-1.78,6.83-.83,9.23.25,18.14,5.52,26.08,4.1,6.2,7.41,13,12.31,18.6a177.52,177.52,0,0,1,12.85,15.85c.45.66.93,1.3,1.61,2.25-4.13.28-7.92-.4-11.77-.09-11,.87-19,6.36-25.26,15.06-4,5.59-6.49,11.94-9.12,18.21C657,805.42,656.72,806.23,656.4,807Z" transform="translate(-0.87 -288.41)"/><path class="cls-4" d="M599.84,592.48c.22,8.18-1.4,15.88-5.73,22.89-1.81,2.93-3.31,2.92-6.22,1-6-3.88-7.92-9.72-8.76-16.34-.94-7.44-2.08-14.86-3.29-22.26-.7-4.25-.38-8.51-.38-12.75,0-3.33,6.07-7,9.18-5.91,1.28.43,2.62.7,3.93,1a11.33,11.33,0,0,1,8.34,7.66C599.85,575.88,599.66,584.2,599.84,592.48Z" transform="translate(-0.87 -288.41)"/><path class="cls-4" d="M834.07,638.15a215.19,215.19,0,0,0-1.45-28c-.6-5.24,0-10.45.56-15.65,1.12-10.7.38-21.4.2-32.09,0-.71,0-1.41,0-2,10.63,5,17.65-1.46,24.93-8C853.62,582.11,846.07,610.59,834.07,638.15Z" transform="translate(-0.87 -288.41)"/><path class="cls-4" d="M850.93,662.23c.2-1.71.29-3.44.61-5.12a13.16,13.16,0,0,0-.48-7.23c-3.89-10.17-.52-19,5.24-27.22,2-2.84,7-3.12,9.72-.69a38.8,38.8,0,0,1,3,3.18,4,4,0,0,1,.95,3.88c-1.83,8.37-3.65,16.73-4.18,25.35A46.72,46.72,0,0,0,867,667.27c1.09,5-.34,9.88-.66,14.81-.1,1.59-1.42,2.64-3.09,3s-1.7-1.26-2.37-2c-2.28-2.69-4.05-5.77-6.08-8.64A20,20,0,0,1,850.93,662.23Z" transform="translate(-0.87 -288.41)"/><path class="cls-4" d="M200.37,972.9c-5.5,5.36-11.82,8.32-19.35,8.41-9.08.11-18.15,0-27.22-.26-6.53-.18-13,.92-19.48,1.63a18.09,18.09,0,0,1-10.75-2c-.61-.32-1.39-.84-1.34-1.6s1-1,1.67-1.13c3.77-.87,7.37-2.47,11.33-2.55a5.66,5.66,0,0,0,2.35-.58,52.35,52.35,0,0,1,18.8-4.83c11.69-1.07,23.46-1.42,35.07,1.17C194.35,971.78,197.42,971.44,200.37,972.9Z" transform="translate(-0.87 -288.41)"/><path class="cls-4" d="M840.55,827.83c4-8,5.45-16.47,8.41-24.36,3.11-8.26,7.3-16.19,14.46-22a29.16,29.16,0,0,1,10.08-5,37.79,37.79,0,0,0-9.31,19.79,55.91,55.91,0,0,0,.31,17.84c.57,3.2.89,6.41,1.19,9.63.12,1.26-.14,1.83-1.63,1.81-5.52-.06-11.06-.25-16.51,1C845.37,827,843.15,827.36,840.55,827.83Z" transform="translate(-0.87 -288.41)"/><path class="cls-5" d="M262,900.87a72,72,0,0,1-1.21,18.41c-2.19,10.08-2.49,20.31-2,30.57a24.5,24.5,0,0,1-.35,5.41c-.35,2.07-1.13,3.74-3.5,3.74-1.89,0-4.13-2.32-4.25-4.31-.16-2.89,0-5.82-.31-8.69-1.19-10.52-1.31-21,1.15-31.35,1.66-7,1.87-14.18,2.39-21.33.24-3.27,2-6.3,3.47-9.24.75-1.49,2.51-.87,3.35,1.15,1,2.48,1.07,5.15,1.2,7.77S262,898.25,262,900.87Z" transform="translate(-0.87 -288.41)"/><path class="cls-1" d="M369.31,630.63c-4.67-12.19-13.48-21.64-21.21-31.78-2.43-3.18-6-5.53-8.62-8,0-.57-.07-.3,0-.13.7,1.35.81,2.7-.49,3.67a3.09,3.09,0,0,1-3.82-.27,17.13,17.13,0,0,0-5.5-2.87c-2.58-.71-5.05-.76-7.28,1.32a19.22,19.22,0,0,1-4.77,3.11c-3.87,1.85-6.91,4.95-10.72,6.88-2.46,1.24-6.06.39-8.39-2-1.9-2-2.07-4.21-.59-7,1.84-3.43,4.89-5.63,8.1-7.48a49.27,49.27,0,0,1,18.48-6,11.88,11.88,0,0,1,11,4.14c.57.66.61.63,1.71.86a1.94,1.94,0,0,1,1.63.84c3.47,4.75,8.53,8.07,11.79,12.95,3,4.48,7,8.26,9.6,12.92s7.43,8,8.44,13.75C369,627.26,369.56,628.88,369.31,630.63Z" transform="translate(-0.87 -288.41)"/><path class="cls-4" d="M35.86,906.94c.5.59.78.77.83,1,2,8.58,5.65,16.69,7.45,25.28,1.57,7.52,2.06,15.26,3.11,22.89.71,5.12,2,10.14,2.66,15.28.33,2.51-1,3.73-2.55,4.94-1.27,1-2.16.18-2.8-1A59.6,59.6,0,0,1,38.1,957.8c-2.25-12.33-4.14-24.7-4.37-37.26C33.65,916,33.8,911.51,35.86,906.94Z" transform="translate(-0.87 -288.41)"/><path class="cls-4" d="M208.7,727.59a37.52,37.52,0,0,1-17.48-8.26C184.65,713.8,181.33,706,177,699c-1.75-2.85-3.31-5.82-4.95-8.74a5.83,5.83,0,0,1-.81-3.39,3.15,3.15,0,0,1,4.87-2.56c3.73,2.47,8,4.36,9.79,9,2.64,6.92,7.33,12.56,11.57,18.48.9,1.25,2.38,2.25,3.75,1.39,1.83-1.14,2.24-.19,2.89,1.14,1.87,3.82,3.77,7.63,5.74,11.41C210.58,727.08,210.43,727.72,208.7,727.59Z" transform="translate(-0.87 -288.41)"/><path class="cls-5" d="M619.28,585.49c-5.54-4-7.08-9.88-7.21-16.15-.19-8.64-.82-17.19-3.25-25.53-1.24-4.25-3.78-8-4.32-12.54a20.52,20.52,0,0,1-.43-2.4,90.23,90.23,0,0,0-2.71-20.14c-1.09-4.7,2-8.15,5.28-11.4,1.4,3.63,1.79,7.38,4.57,10.14.54.54.07,2.09.1,3.18.21,10.24-.92,20.49.19,30.71.91,8.29,2.9,16.39,4.38,24.59C617,572.43,617.91,579,619.28,585.49Z" transform="translate(-0.87 -288.41)"/><path class="cls-4" d="M571,539.22a46.25,46.25,0,0,1,.19-8.4c.11-.67-.27-1.57.76-1.75a2.07,2.07,0,0,1,1.84,1c3.65,4.11,7.27,8.26,11,12.31,3.51,3.85,5.92,8.36,8.25,12.94.4.78,1.06,1.69.07,2.42-.78.57-1.4,0-2.13-.52a10.94,10.94,0,0,0-13.79,1.54c-.6.61-1.1,1.66-2.16,1.32s-.91-1.42-1.27-2.23C571.06,551.86,571.12,545.53,571,539.22Z" transform="translate(-0.87 -288.41)"/><path class="cls-5" d="M370.87,591.6a14.69,14.69,0,0,1,1.8-6.79,3.8,3.8,0,0,1,3.73-1.76c1.51.08,1.24,1.54,1.55,2.5,3.5,10.94,7.37,21.77,9.54,33.09,1.07,5.59,2.15,11.18,3.12,16.78.15.87.77,2.22-.48,2.68s-1.82-.86-2.35-1.75c-4-6.79-5.68-14.48-7.93-21.91-1.9-6.25-3.64-12.51-7.23-18.07A9,9,0,0,1,370.87,591.6Z" transform="translate(-0.87 -288.41)"/><path class="cls-5" d="M198.14,979.43c-3.17,4.34-6.19,8.86-10.55,12-3.78,2.74-8.25,4.08-12.85,4.86a91.45,91.45,0,0,1-27,.24c-3-.39-5.8-1.85-8.8-3.47,5.9-2.7,11.84-3.15,17.8-3.4,6.89-.29,13.81-.22,20.67-.84,6.33-.58,11.93-3.52,17.25-6.87C195.84,981.18,197,980.28,198.14,979.43Z" transform="translate(-0.87 -288.41)"/><path class="cls-4" d="M880.31,775.1c-.42,8.19-2,15.84-3.36,23.55a52.88,52.88,0,0,1-8.14,20.41c-.23.36-.47.72-.78,1.18C863.21,801.26,867.12,784.45,880.31,775.1Z" transform="translate(-0.87 -288.41)"/><path class="cls-1" d="M329.52,560.14l-17-21.29c1.73-.19,3.38,2.26,5.21.08.32-.38,1,.12,1.33.61,1.44,2.32,4.16,3.55,5,6.57.33,1.24,1.78,2.65,2.9,3.71,3.27,3.09,5.64,6.87,8,10.55a29.88,29.88,0,0,1,4.58,12.69c.39,3.28.54,6.63,2,9.76a17.86,17.86,0,0,0,2,2.85,1.52,1.52,0,0,1-.13,2.2c-.7.53-1.4-.08-1.87-.61a9.56,9.56,0,0,1-1.78-2.37c-.74-1.74-1.6-.81-2.49-.29q-1.86-7.27-3.7-14.57a30.34,30.34,0,0,0-3.93-9.92c.4-.42.95-.76.85-1.5C329.94,559.07,330.1,559.81,329.52,560.14Z" transform="translate(-0.87 -288.41)"/><path class="cls-6" d="M181.79,984.71a19.34,19.34,0,0,1-8,1.6c-6.71.11-13.43.31-20.14.22-5.53-.07-10.7,1.56-16,2.74A10.21,10.21,0,0,1,131,989a122.89,122.89,0,0,0-13.32-5.4,15.6,15.6,0,0,1-2.57-1.38c2.54-3.14,2.67-3,5.23-.65a16.93,16.93,0,0,0,13.91,4.17c12.13-1.48,24.23-1.32,36.37-1C174.35,984.79,178.07,984.71,181.79,984.71Z" transform="translate(-0.87 -288.41)"/><path class="cls-7" d="M370.74,540.18c1.13.53,1.2,1.39,1.27,2.34.56,8.06,1.07,16.12,1.77,24.16.26,3,1,5.86,1.57,9.43-1.28-1.39-2.48-2.07-2.23-3.78.18-1.28-.67-2.21-1.23-3.24-2.26-4.14-4.45-8.34-5.56-12.93C365.27,551.72,366.73,547.18,370.74,540.18Z" transform="translate(-0.87 -288.41)"/><path class="cls-7" d="M339.42,690.58c-6.74,10-17.94,10.91-28.3,14.38,2.54-4.55,5.49-8,10.75-8.69,4.67-.63,8.67-3,12.65-5.26C336.22,690.05,337.57,689.68,339.42,690.58Z" transform="translate(-0.87 -288.41)"/><path class="cls-8" d="M309.78,711c-.55-.13-1.67.23-1.35-.72.46-1.36.67-3.17,2.56-3.47,4.08-.66,7.93-2.2,12.05-2.78,6.9-1,12.5-4.55,17.29-9.51.81-.84,1.69-1.63,2.55-2.45a1.4,1.4,0,0,1,2-.25c.93.74-.07,1.29-.42,1.77-4.18,5.8-10,9.4-16.52,11.92a120.51,120.51,0,0,1-16.24,5.24C311,710.88,310.4,710.91,309.78,711Z" transform="translate(-0.87 -288.41)"/><path class="cls-9" d="M680.36,732.23c-5.86-6.71-7.26-22.6-2.76-28.94C678.85,706.19,680.69,725.18,680.36,732.23Z" transform="translate(-0.87 -288.41)"/><path class="cls-10" d="M695.72,755.27c6,2.21,9.64,6.54,13.75,10.19,2,1.82-.61,2.27-1.25,3.21s-1.36,2-2.43.35A158.2,158.2,0,0,0,695.72,755.27Z" transform="translate(-0.87 -288.41)"/><path class="cls-11" d="M455.2,410c4.62-3.87,11.55-4.15,14-.8C464.73,410.4,460.3,410,455.2,410Z" transform="translate(-0.87 -288.41)"/><path class="cls-1" d="M804.32,460.8a15.41,15.41,0,0,1-4.85-2.09c-4.37-2.74-8.66-5.64-13.14-8.17-8.31-4.7-16.93-6.54-26.3-2.85-6.47,2.55-12.93,5.22-19.69,7-7.55,2-15.27,3-23,4.29-1,.17-2.32.44-3-.68s.32-1.87.89-2.62c2.23-2.9,3.69-6.22,5.33-9.45a13.8,13.8,0,0,1,4.87-5.31c7.72-5.15,16.61-7.56,25.09-10.91a70.5,70.5,0,0,1,13.68-4.27,24.38,24.38,0,0,1,17,2.78,59.73,59.73,0,0,1,25.24,28.6C807.52,459.4,806.6,461,804.32,460.8Z" transform="translate(-0.87 -288.41)"/><path class="cls-12" d="M701.13,637.76c-8,.54-14-3-19.22-8.56-5.9-6.19-10.55-13.4-16.37-19.65a7.85,7.85,0,0,1,1.57-11.93,62.56,62.56,0,0,1,26.63-9.29,26.88,26.88,0,0,1,7.84.64c5.43.95,10.7.77,15.51-2.24s10.09-3,15.47-1.74c4.58,1.1,9.16,2.21,13.79,3.1a67.88,67.88,0,0,0,14.1.84,37.37,37.37,0,0,1,3.81-.11c2.62.19,3.3,1.75,1.88,3.87a20.41,20.41,0,0,0-2.45,4.23,24.67,24.67,0,0,1-4.47,7.39,91.26,91.26,0,0,0-9.49,13.57c-6.94,12.12-17.45,17.87-31.26,18.33C712.68,636.41,706.91,637.23,701.13,637.76Z" transform="translate(-0.87 -288.41)"/><path class="cls-1" d="M761,486.63a233.59,233.59,0,0,1-24.57-3c-1.23-.21-2.21-1.06-.88-2.2,10.29-8.81,21.84-14.1,35.76-12.47,3.9.46,7.52,2,11.08,3.55,4.66,2,9.6,2.48,14.55,3,1.26.12,2.77-.18,3.06,1.51s-1.14,1.9-2.25,2.24C785.66,483,773.41,486.07,761,486.63Z" transform="translate(-0.87 -288.41)"/><path class="cls-12" d="M657.46,485.4c6.74-.26,12.59,1.71,18.53,3.19,2.63.66,5.25,1.39,8,.51.47-.15.94-.24,1.19.23a1,1,0,0,1-.47,1.36,25.26,25.26,0,0,1-3.37,1.69c-10.4,3.46-21.15,5.32-31.93,7a91.07,91.07,0,0,1-14.85,1.2,6.64,6.64,0,0,1-3.61-1c-2.44-1.54-2.44-3.43,0-5a63.54,63.54,0,0,1,21.35-9A38.65,38.65,0,0,1,657.46,485.4Z" transform="translate(-0.87 -288.41)"/><path class="cls-13" d="M683,560.54c2.17,1.43,4.31,1.7,6.38,2.19,1.09.26,2.58.37,2.28,2.08s-1.72,1.41-2.83,1.2c-6.42-1.22-12.25-3.4-15.29-9.87-2-4.19-1-9.3,2.27-11.9.8-.63,1.89-1.66,2.85-.65,1.18,1.24-.33,1.71-1.07,2.43-3.11,3-2.48,9.55,1.14,12.1.43.3.76.71,1.56.12,3.65-2.68,7.53-2.1,11.26-.2,3.47,1.76,6.78,3.84,10.2,5.7,3.25,1.77,6.42,1.67,9.38-.71,2.19-1.77,4.46-3.44,6.5-5.36,4.65-4.34,10.13-5.15,16.15-4.32,1.21.16,2.55,1.72,3.65.22,1.31-1.76,2.33-3.76,1.16-6.06-1-1.93-2-3.84-3.06-5.75-.54-1-1.12-2.13,0-2.92s2.21,0,2.88,1.11a32.83,32.83,0,0,1,3.55,7c1.07,3.27-.23,6-2.07,8.65-3,4.29-7.53,6.38-12.21,8.23-.64.25-1.25.45-1.65-.27-.58-1,.23-1.53.9-1.94,2.3-1.45,4.65-2.8,6.94-4.25.5-.31,1.27-.65,1.09-1.4s-1-.73-1.58-.79c-5.08-.51-9.73.49-13.49,4.17a61.52,61.52,0,0,1-7.59,6.58c-3.76,2.63-7.71,2.69-11.84.87-3.58-1.58-6.82-3.76-10.22-5.64A8.1,8.1,0,0,0,683,560.54Z" transform="translate(-0.87 -288.41)"/><path class="cls-2" d="M710.49,521.85c0,1.08.07,2.18,0,3.26-.06.62.34,1.63-.8,1.67s-1.08-.79-1-1.54A88.6,88.6,0,0,0,708,516c-.87-13.16-1.22-26.35-2.79-39.46a14.38,14.38,0,0,1,0-3.53c.08-.62.22-1.65,1.11-1.59s1.07.92,1.06,1.67c0,2.36.36,4.67.54,7,.56,7.3.82,14.63,1.26,21.95.4,6.59.9,13.17,1.35,19.76Z" transform="translate(-0.87 -288.41)"/><path class="cls-14" d="M646.32,596.11c-.31-7.67,3.2-14,7-20.19,2.42-3.93,5.17-7.65,7.79-11.46a10.5,10.5,0,0,1,1-1.27,1.59,1.59,0,0,1,2.19-.41c.86.64.47,1.46,0,2.15-1.21,1.69-2.42,3.39-3.71,5a78.09,78.09,0,0,0-9.85,15.91c-2.35,5.2-4,10.75-.34,16.23.35.52.49,1-.08,1.4s-1.06-.07-1.39-.49A11.62,11.62,0,0,1,646.32,596.11Z" transform="translate(-0.87 -288.41)"/><path class="cls-15" d="M722.93,479.71a16.78,16.78,0,0,1,5.46-9.14c.51-.47,1.11-.79,1.66-.25s.29,1.16-.09,1.73a74,74,0,0,1-4.27,6.2,14.11,14.11,0,0,0-1.07,2.07c-.33.53.13,1.76-1,1.49C722.78,481.63,722.7,480.76,722.93,479.71Z" transform="translate(-0.87 -288.41)"/><path class="cls-13" d="M863.28,1099.3c-7.68.71-13.85-2.9-19.67-7.75-4.64-3.88-9.44-7.59-15.46-9.28-.93-.26-2.49-.75-2.44-1.88s1.4-1.79,2.64-1.92c2.59-.28,5.1-.89,7.8-.29a13.14,13.14,0,0,0,8-.76c6.39-2.69,13-4.44,20-4,3.62.2,7.1-1.22,10.67-1.74a21.43,21.43,0,0,1,11.71,1.17c6.68,2.84,13.34,2.71,20.19,1.13a28,28,0,0,1,4.59-.34,1.66,1.66,0,0,1,1,3.12c-6.86,3.31-11.72,9-17,14.16-5.57,5.37-12.52,7.15-19.81,7.69C871.47,1098.86,867.54,1099.86,863.28,1099.3Z" transform="translate(-0.87 -288.41)"/><path class="cls-16" d="M901.6,990.26a45.46,45.46,0,0,1-15.13-2.48c-2.87-.94-3.15-1.89-1.51-4.51,7.45-11.89,17.13-12.94,29.49-11a23.75,23.75,0,0,1,14.42,7.42c1.93,2.13,1.88,3.51-.64,5a38.12,38.12,0,0,1-16.31,5.44C908.5,990.36,905.08,990.94,901.6,990.26Z" transform="translate(-0.87 -288.41)"/><path class="cls-12" d="M807.23,996.63c-4.32-.18-8.78.24-13.2-.4a3.91,3.91,0,0,1-2.51-.91c-.86-.91-.9-2.12.21-2.48,4.08-1.32,6.42-4.89,9.72-7.2,7-4.91,14.62-7.6,23.22-6.58,6.65.79,11.37,4.92,15.53,9.73,1.34,1.56.66,3-1.68,3.87-3.93,1.44-8.09,2-12.18,2.72C820.07,996.57,813.69,996.29,807.23,996.63Z" transform="translate(-0.87 -288.41)"/><path class="cls-17" d="M830.69,966.78a6.32,6.32,0,0,1-3.36-1c-3.47-1.73-6.91-3.59-10.53-5-2.32-.9-5-.7-7.46-.41-4.7.55-9.69.23-13.67,3.58-.89.75-1.7,1.62-2.59,2.39a2.56,2.56,0,0,1-3.21.54,2.87,2.87,0,0,1-1.39-3,6.12,6.12,0,0,1,1.7-3.9c8-8.84,17.78-11.54,29.25-8.28,5,1.43,9.42,4.12,13.88,6.7a1.91,1.91,0,0,1,.42.33c1.35,1.4,3.51,2.69,2.57,4.91S833,966.49,830.69,966.78Z" transform="translate(-0.87 -288.41)"/><path class="cls-13" d="M830.07,1038.61a14.74,14.74,0,0,1,1.57-6.72c1.4-3,4.81-4.1,7.27-2.47.68.45,1.4,1,1.06,2a1.52,1.52,0,0,1-2.16,1c-2.32-1-3.07.37-3.7,2.2a13.36,13.36,0,0,0,6.56,16.14c1.54.74,2.8.85,4.15-.52,3.14-3.16,6.78-3.47,10.69-1.48.73.37,1.52.61,2.25,1,4.4,2.19,8.28,2.35,11.92-1.82,3.07-3.51,7-4.8,11.42-1.94a7.91,7.91,0,0,0,2.84.78c3.6.67,4.49.19,5.67-3.13a33.41,33.41,0,0,0,1.9-11.15c0-3.7-1.86-5.21-5.52-4.64-1,.15-1.91.21-2.19-.93s.55-1.67,1.64-2a6.78,6.78,0,0,1,8.92,6.14,30.31,30.31,0,0,1-3.36,15.69c-1.27,2.57-4,2.55-6.43,2.4a13.46,13.46,0,0,1-5.4-1.64c-2.41-1.28-4.52-.75-6.47,1a22.82,22.82,0,0,0-2.64,2.35c-2.86,3.47-6.45,3.67-10.35,2.42a49.94,49.94,0,0,1-5.81-2.27c-2.78-1.29-5.2-.85-7.11,1.45s-4.1,2.35-6.59,1.43C834.52,1051.77,830,1045.15,830.07,1038.61Z" transform="translate(-0.87 -288.41)"/><path class="cls-12" d="M115.2,847.45c2.6-.05,4.7,1.24,6.84,2.43a23.8,23.8,0,0,0,3.08,1.69c1.19.46,2.23,1.07,2.31,2.37.09,1.48-1.05,2.15-2.29,2.68a111,111,0,0,1-31.82,8.72c-4.32.46-8.64.86-13,1.31A10.62,10.62,0,0,1,74,865.53c-2.23-1.29-3,0-3.82,1.38a56.78,56.78,0,0,0-5.37,11.53c-.55,1.82-1.14,3.62-1.72,5.43-.26.82-.74,1.64-1.66,1.44s-.87-1.24-.66-2c1.58-6.12,3.43-12.15,6.55-17.71a15.45,15.45,0,0,1,7.82-6.84,52.5,52.5,0,0,1,14.43-3.66c5.68-.57,10.76-3.11,15.91-5.33A29.43,29.43,0,0,1,115.2,847.45Z" transform="translate(-0.87 -288.41)"/><path class="cls-12" d="M132.83,886.21c-6.12.69-11.37,3.25-16.73,5.31a46.45,46.45,0,0,1-29,1.48,2.64,2.64,0,0,0-2.23.56A52.93,52.93,0,0,1,72,899.28c-1.13.29-2.44.92-3-.71s.73-2.17,1.88-2.47c8.59-2.29,15-8.1,22.17-12.9,9-6.06,18.88-8.25,29.21-2.8C125.82,882.28,129.31,884.27,132.83,886.21Z" transform="translate(-0.87 -288.41)"/><path class="cls-12" d="M192.21,887.16a43.33,43.33,0,0,1-15.42-2.36c-.75-.24-1.36-.66-2.29-.22-2.6,1.2-4.68-.49-6.8-1.57a1.54,1.54,0,0,1-.92-2,1.52,1.52,0,0,1,1.86-.79c3.41.88,5.29-1.11,7.63-3.21,6.86-6.17,15.49-8.36,24-5.84a133.58,133.58,0,0,1,16.23,5.76,21.44,21.44,0,0,0,10.38,1.53c1.09-.08,2.4-.26,2.47,1.31.07,1.37-1.12,1.83-2.24,1.88-3.19.16-6.41.07-9.33-1.35-1.9-.91-3.27-.52-5,.47C206.05,884.67,198.86,887.27,192.21,887.16Z" transform="translate(-0.87 -288.41)"/><path class="cls-12" d="M213.1,854.3c-5-.24-9.73-2.17-14.73-2.55a19.9,19.9,0,0,0-12.73,3,15.45,15.45,0,0,1-10.56,2.76,10.07,10.07,0,0,1-6.09-3.29c-1.47-1.51-.45-2.77.66-4,10.84-11.86,29.84-10.59,40.47-5.71a11.6,11.6,0,0,1,5.73,5.62C217.12,852.78,216,854.47,213.1,854.3Z" transform="translate(-0.87 -288.41)"/><path class="cls-18" d="M193.83,861.8a46.59,46.59,0,0,1,14.5,3.94c2.21,1,4.43,2.1,6.59,3.24,1.33.71,3.76,1.22,2.9,3.09s-2.76.26-4.08-.31c-4.73-2-9.18-4.63-14.24-6-9.68-2.64-19.42.75-24.94,9.12-.38.57-.7,1.54-1.57,1.16-1-.46-.49-1.39-.2-2.12a14.66,14.66,0,0,1,4.9-6C181.78,864.71,189,861.85,193.83,861.8Z" transform="translate(-0.87 -288.41)"/><path class="cls-18" d="M90,904.56a78.76,78.76,0,0,0,32.28-5.68,31,31,0,0,0,11.09-7.7c.37-.39.76-1,1.3-.7s.41,1.12,0,1.66a9.41,9.41,0,0,1-1.36,1.69c-4.76,4.1-9.75,7.75-16,9.39-7.19,1.89-14.31,4-21.81,4.16-3.71,0-7.43-.17-11.14-.33-.91,0-2-.29-1.85-1.51s1.2-1.38,2.24-1.31Z" transform="translate(-0.87 -288.41)"/><path class="cls-2" d="M113.65,868.52a31.43,31.43,0,0,1,9.17,1.14,15.72,15.72,0,0,1,2.55.9c.89.45,1.9,1.07,1.4,2.28s-1.58.93-2.57.58a30.18,30.18,0,0,0-8.46-1.83c-11.57-.68-21.25,3.64-29.79,11.07-.62.54-1.07,1.94-2.08,1s-.13-1.83.61-2.54C92.64,873.33,102.16,868.64,113.65,868.52Z" transform="translate(-0.87 -288.41)"/><path class="cls-19" d="M146.2,929.22a25.48,25.48,0,0,1,7.5,2.24c6.23,2.75,11.07,1.72,15.64-3.29a8,8,0,0,1,8.48-1.94c1.32.52,2,1.4,1.49,2.72s-1.53,1.45-2.67.82c-2.89-1.6-5-1.11-7.24,1.57a12.45,12.45,0,0,1-8.87,4.66c-3,.23-5.41-1.32-8-2.23-1.86-.66-3.71-1.37-5.59-1.94-1-.32-2.49-1.07-2.78,1.16-.14,1-1.28,1.18-2.23.8s-2.1-.37-2.19-1.68c-.07-1,.79-1.33,1.52-1.68A10.33,10.33,0,0,1,146.2,929.22Z" transform="translate(-0.87 -288.41)"/><path class="cls-14" d="M161.67,880.77a23.31,23.31,0,0,1,3.79-12.83c.78-1.23,1.77-2.38,3.28-1.4s.6,2.21-.14,3.29c-4.39,6.35-4.06,13.26-2.41,20.33a65.31,65.31,0,0,0,2,8.15c.29.78.81,1.89-.31,2.39s-1.83-.49-2.22-1.42c-1.69-4-2.27-8.36-3.27-12.58A22.83,22.83,0,0,1,161.67,880.77Z" transform="translate(-0.87 -288.41)"/><path class="cls-20" d="M144.44,911a146.46,146.46,0,0,0,.88-17.09c0-2-.15-4-.25-6a7.32,7.32,0,0,0-4.51-6.85c-1.23-.55-2.13-1.32-1.43-2.68s1.85-.82,2.88-.38a10,10,0,0,1,6.35,9,92.4,92.4,0,0,1-.38,17.36A10.61,10.61,0,0,1,144.44,911Z" transform="translate(-0.87 -288.41)"/><path class="cls-21" d="M191.36,894.25c-4,.11-7.89-.93-11.78-1.74-.63-.13-1.38-.3-1.3-1.12.12-1.11,1.09-1.14,1.88-1,2.15.31,4.28.79,6.43,1.09,7.12,1,13.83-1,20.5-3.05.43-.14.85-.34,1.26-.52,1-.41,2-.7,2.52.6s-.46,1.86-1.44,2.22a38.07,38.07,0,0,1-5.68,1.86C199.65,893.32,195.57,894.25,191.36,894.25Z" transform="translate(-0.87 -288.41)"/><path class="cls-2" d="M128.51,927.12c.15-3.5,2.86-6.68,6.26-9.42a1.67,1.67,0,0,1,2.45.12c.81.9.24,1.7-.42,2.38-1.19,1.23-2.55,2.33-3.61,3.66-3.26,4.06-2.32,8.4,2.26,10.84.4.21.84.35,1.23.56.87.48,2,.92,1.39,2.2s-1.7.88-2.64.58C131.41,936.8,128.5,932.67,128.51,927.12Z" transform="translate(-0.87 -288.41)"/><path class="cls-19" d="M183.47,923.48c.1-4.19-2-6.68-5.34-8.34a9.73,9.73,0,0,1-3.57-2.41,2.19,2.19,0,0,1-.07-3c.9-.86,1.76-.11,2.47.72,1.51,1.75,3.85,2.29,5.51,3.92a11.09,11.09,0,0,1,1.84,13.87c-.52.84-1,1.72-1.5,2.55-.32.5-.66,1.28-1.39,1s-.44-1.19-.24-1.71c.66-1.76,1.5-3.46,2.19-5.21A4,4,0,0,0,183.47,923.48Z" transform="translate(-0.87 -288.41)"/><path class="cls-1" d="M966.81,729.15c-8.24-.41-17.67-1.91-26.25-6.12-9.36-4.58-16.38-11.62-19.62-22-.71-2.28-1.23-5.13-4.26-6.28-1.59-.6-1.24-2.12.09-3,1.65-1.07,3.45-1.93,5.17-2.91,7.53-4.33,15.36-7.85,24-9.14,4.18-.63,8.45-.86,12.38.54,7.09,2.53,14.51,3.64,21.68,5.74,10.08,3,18.2,8.69,23.29,18.2,1.39,2.61,1.6,4.68-.44,7.36-5.22,6.87-11.39,12.33-19.51,15.45C978.47,728.9,973.29,728.91,966.81,729.15Z" transform="translate(-0.87 -288.41)"/><path class="cls-1" d="M952.37,584.56c-4.53-.1-8.92-1.22-13.27-2.31-14.12-3.53-26.93-1-38.47,7.85-.69.53-1.36,1.6-2.25.81s0-1.61.42-2.39c4.64-7.8,10.17-14.55,19.14-17.79,5.25-1.9,10.69-1.58,16-1.85,5-.26,9.93-1,14.93-.66,3.76.25,7.16,1.13,10,4,2.17,2.26,3.23,4.67,2.36,7.59-1,3.16-3.67,4.27-6.69,4.69A17.61,17.61,0,0,1,952.37,584.56Z" transform="translate(-0.87 -288.41)"/><path class="cls-1" d="M935.53,616.73c-8,.19-15.69-2-23.44-4.12-3.73-1-7.45-2-11.19-3a1.83,1.83,0,0,1-1.5-1.39c-.11-.79.53-1.17,1.35-1.36,4.71-1.07,8.84-3.44,13-5.84,7.27-4.24,14.65-4.46,22.5-1.31,5.91,2.37,10.25,6.49,14.55,10.82,1.48,1.51,1.29,3-.79,3.77A38.62,38.62,0,0,1,935.53,616.73Z" transform="translate(-0.87 -288.41)"/><path class="cls-1" d="M1023.07,631.44c-10.27-.06-18.54-2.62-25.72-8.4-.89-.72-.87-1.24-.18-2.17,6.19-8.33,21.6-12.46,30.52-4a55.94,55.94,0,0,1,7.57,8.5c1.6,2.29,1.14,3.6-1.54,4.44A44.25,44.25,0,0,1,1023.07,631.44Z" transform="translate(-0.87 -288.41)"/><path class="cls-13" d="M1015.83,606.77a22.6,22.6,0,0,1,17.26,7.66c1.83,2,4.14,3.59,5.5,6,.44.77,1.55,2,.26,2.79-1.11.65-1.84-.42-2.55-1.36a38.85,38.85,0,0,0-8.43-8.78c-8.81-6.17-17.79-5.73-26.37.91-.57.45-1.2,1.66-1.93.8s.52-1.5,1.11-2C1005.12,609,1010.08,606.5,1015.83,606.77Z" transform="translate(-0.87 -288.41)"/><path class="cls-13" d="M929.65,590.56c8.59-.4,15.87,4,22.73,9.29.93.72,1.84,1.44,2.81,2.1.67.45,1.12,1.13.72,1.83s-1.26.44-1.91.14c-2.76-1.26-4.72-3.62-7.08-5.41-12-9.12-26.48-7.53-37.89.17-.76.51-1.22,2.86-2.44,1.32-.75-1,1.17-1.68,2.06-2.32A35.72,35.72,0,0,1,929.65,590.56Z" transform="translate(-0.87 -288.41)"/><path class="cls-13" d="M934.74,625c-5.08.38-10.47-.7-15.86-1.75a6.09,6.09,0,0,1-1.77-.61c-.58-.32-1.55-.77-1.23-1.45.59-1.27,1,.2,1.57.29a111,111,0,0,0,11.14,1.71c7.69.47,15.33,0,22.64-2.76,1-.4,2.26-1.13,2.75.28s-1.14,1.62-2,1.94A43.81,43.81,0,0,1,934.74,625Z" transform="translate(-0.87 -288.41)"/><path class="cls-13" d="M995.31,663.77a12.36,12.36,0,0,1-7.59,12.49,8.53,8.53,0,0,1-3.17.41c-.72,0-1.31-.3-1.29-1s.77-.51,1.24-.57c6-.74,10.11-7.93,7.61-13.48-.53-1.17-1.56-2.5,0-3.27,1.7-.85,1.82,1.22,2.55,2.08S995.1,662.63,995.31,663.77Z" transform="translate(-0.87 -288.41)"/><path class="cls-3" d="M948.61,648.75c.22.14.61.26.75.51s-.19.53-.44.78c-4.54,4.72-3.42,11.82,2.27,14.75.77.39,1.92.77,1.44,1.91s-1.66.78-2.58.46a9.43,9.43,0,0,1-6-9.33,16.31,16.31,0,0,1,1.81-7A3.66,3.66,0,0,1,948.61,648.75Z" transform="translate(-0.87 -288.41)"/><path class="cls-3" d="M957.78,669.67c1.36-1.11,2.2-.5,3,0,1.06.68,2.08,1.42,3.14,2.11,3.63,2.36,7,2.15,10.34-.62a7.87,7.87,0,0,1,.79-.74c1.12-.68,2.64-2,3.51-.64,1,1.59-1.29,1.38-2,2.06a13.07,13.07,0,0,1-6.39,3.2c-3.45.7-6.08-1-8.58-3A18.86,18.86,0,0,0,957.78,669.67Z" transform="translate(-0.87 -288.41)"/><path class="cls-12" d="M918.34,676.29c0,.87-.61,1.19-1,1.67a19.88,19.88,0,0,0-4.47,10.2c-.06.54.66,1.7-.67,1.57a2,2,0,0,1-2.05-1.79c-.34-2.58,4.27-11.14,6.63-12.18C917.45,675.48,918.24,675.24,918.34,676.29Z" transform="translate(-0.87 -288.41)"/><path class="cls-1" d="M489,644.26c-1.81-.39-4.51.76-5.3-2.24-1.9-7.18,1.25-15.55,9.1-17.66,4.05-1.1,7.56.09,11.22,1.59s8,1.45,11.94,2.24c5.22,1,10.64,1.13,15.52,3.62,3.67,1.87,7.11,8.68,6.41,12.68-.32,1.84-1,2.57-2.9,1.64-3.73-1.82-7.47-3.57-11.65-4.28-7.71-1.32-15.28-.75-22.92.69C496.66,643.24,493,644.4,489,644.26Z" transform="translate(-0.87 -288.41)"/><path class="cls-1" d="M477.23,639.41c-.45,7.32-1.9,9.15-9.57,9.88-11,1.05-20.57,5.24-29.77,10.86a24.86,24.86,0,0,1-5.11,2.48c-3.76,1.24-5.54-.41-5-4.25a21.55,21.55,0,0,1,16.81-17.7c5-1,10.17-1.8,14.47-5a26.14,26.14,0,0,0,3.35-2.76c3.1-3.14,6.73-3.45,10.78-2.42a4,4,0,0,1,3.36,3.41C476.86,636.07,477.08,638.22,477.23,639.41Z" transform="translate(-0.87 -288.41)"/><path class="cls-12" d="M477.5,674.25c-11.84-1.19-23.22-3.74-32.86-11.35-1.18-.93-2.71-1.88-2.22-3.72s2.3-1.89,3.79-2c7.62-.68,14.65-3.64,22-5.56a21.83,21.83,0,0,1,10.46-.52c3,.68,5.7-.54,8.47-1.26,6.14-1.58,12.3-2.91,18.7-2.63,3.28.15,6.5-.59,9.74-.76a29.8,29.8,0,0,0,6.78-.95c2-.59,2.56.61,2.38,2.43a3.62,3.62,0,0,1-1.17,2.09c-6.32,7.08-13.26,13.39-22.21,17-6.27,2.56-12.41,5.55-19.18,6.67C480.61,674,479.08,674.07,477.5,674.25Z" transform="translate(-0.87 -288.41)"/><path class="cls-1" d="M424.53,573.83c-3.86.21-7.4-.65-10.95-1.37-3.37-.69-5.79-3-8-5.43a2.94,2.94,0,0,1,.49-4.53,53.4,53.4,0,0,1,17.39-9.29c5.78-1.87,11-.54,15.75,2.61,3.75,2.49,7,5.7,10.45,8.63a1.44,1.44,0,0,1-.15,2.51,9.06,9.06,0,0,1-2.72,1.18,115.17,115.17,0,0,0-13.2,4.23A16.58,16.58,0,0,1,424.53,573.83Z" transform="translate(-0.87 -288.41)"/><path class="cls-1" d="M504.38,558.53c-3.18.53-6.84-.24-10.49-1.24-.84-.24-1-.55-.91-1.29a13.39,13.39,0,0,1,3.14-7.34,28.27,28.27,0,0,1,18.9-9.19c6.59-.6,12.7,1.8,16.28,8.21,1.13,2,.38,4.29-2.16,5.6-3.86,2-7.73,4-12.23,4.24C512.94,557.74,509,558.69,504.38,558.53Z" transform="translate(-0.87 -288.41)"/><path class="cls-12" d="M444.31,548.37c-4-.13-8.61-1.24-13.35-1.13-8.48.19-16,3.68-23.63,6.69-1.16.46-2.47,1.36-3.43,0s.3-2.31,1.07-3.31A24.47,24.47,0,0,1,415.42,543a147.69,147.69,0,0,1,20.33-6.65,17,17,0,0,1,10.39,1.06,6.59,6.59,0,0,1,2.77,9.6C447.94,548.39,446.51,548.53,444.31,548.37Z" transform="translate(-0.87 -288.41)"/><path class="cls-12" d="M509.35,528.18A54.44,54.44,0,0,1,526,530.31a26,26,0,0,1,6.95,3.66c.78.55,1.85,1.19,1.43,2.37s-1.55,1.31-2.73,1.15c-3.41-.45-6.83-.84-10.25-1.25a44.22,44.22,0,0,0-23.82,3.92,39,39,0,0,1-5.1,1.88c-2.25.65-3.85-.09-4.68-2.42-1.79-5-1.2-6.55,3.31-9.33,4.7-2.9,9.83-2.71,15-2.42C507.18,527.93,508.26,528.08,509.35,528.18Z" transform="translate(-0.87 -288.41)"/><path class="cls-3" d="M496.38,681.93c11.67.24,21.55,4.1,29.74,12.07a7.79,7.79,0,0,1,1.11,1.19c.38.55,1.22,1.12.57,1.87s-1.43.32-2.11-.26c-1.65-1.42-3.26-2.9-5-4.16a40.45,40.45,0,0,0-54.79,7.14A15.86,15.86,0,0,1,464.8,701a1.62,1.62,0,1,1-2.57-2,25.52,25.52,0,0,1,2.89-3.59C473.69,686.42,484.33,682.17,496.38,681.93Z" transform="translate(-0.87 -288.41)"/><path class="cls-19" d="M566.77,593.88a37,37,0,0,1-3.3,9.19c-3,6-6,12-8.88,18-1.47,3.07-1.47,6.49-1.91,9.79-.53,4-.77,8.08-1.21,12.11a5.19,5.19,0,0,1-.8,2,1,1,0,0,1-1.43.39,1,1,0,0,1-.49-1.15c1.65-7.24,1.4-14.73,2.86-22,.47-2.34,1.84-4.51,2.84-6.74,3-6.67,6.76-13,9.22-19.92a12.19,12.19,0,0,1,1.51-2.57c.23-.35.55-.78,1.08-.67C567.09,592.51,566.67,593.18,566.77,593.88Z" transform="translate(-0.87 -288.41)"/><path class="cls-19" d="M464.63,612.52c1,.26.91,1,1,1.56a10.2,10.2,0,0,0,7.29,8.33c3.79,1.08,7.81.75,10.64-2.84a23.06,23.06,0,0,1,5.79-4.9c1.17-.76,2.59-1.5,3.53.11a2.37,2.37,0,0,1-1.2,3.45c-3,1.35-5.47,3.43-8.14,5.28-6.05,4.19-15.73,1.19-18.75-5.53A8.35,8.35,0,0,1,464.63,612.52Z" transform="translate(-0.87 -288.41)"/><path class="cls-20" d="M492.46,592.1c-1.88-.79-2.84-2.4-4-3.88a33.26,33.26,0,0,1-6.58-18.45c-.31-4.52-.87-9-.56-13.55a12.7,12.7,0,0,1,1.71-5.38c.37-.67.84-1.61,1.8-1.21s.26,1.34.09,1.9c-2,6.87-1.52,13.85-.55,20.73.91,6.53,3.07,12.73,7.45,17.91C492.25,590.62,492.25,590.63,492.46,592.1Z" transform="translate(-0.87 -288.41)"/><path class="cls-14" d="M503.58,609.37c.17,3.59-1.64,5.69-3.45,7.71-1.26,1.41-2.79,2.58-4.18,3.87-.56.51-1.22,1-1.91.51s-.39-1.28.06-1.93a13.92,13.92,0,0,1,2.67-3.06c4.81-3.8,5.94-8.77,0-12.86a6.19,6.19,0,0,1-2.21-2.71c-.31-.75.09-1.22.47-1.71a.58.58,0,0,1,.93-.1c3.15,2.88,7.27,5,7.64,10C503.6,609.4,503.58,609.68,503.58,609.37Z" transform="translate(-0.87 -288.41)"/><path class="cls-22" d="M456.21,604c1.55.47.91,1.66.49,2.56-1.08,2.27-2.34,4.39-2.25,7.11a10.49,10.49,0,0,0,4.36,8.56c2.3,1.75,4.48,3.65,6.7,5.49.48.39,1.21.81.73,1.51s-1.19.12-1.57-.27c-2.44-2.45-5.47-4.12-8.21-6.17-5.21-3.91-5.66-12.2-2-17.9A1.77,1.77,0,0,1,456.21,604Z" transform="translate(-0.87 -288.41)"/><path class="cls-1" d="M261.75,610.33a22.31,22.31,0,0,1-2.22,10c-2.13,4.51-6.08,6.74-11.79,5.43-8.4-1.93-14.94,1-20.8,6.5-4.91,4.56-9.77,9.19-14.27,14.17-.66.74-1.35,1.58-2.53,1.08a2.49,2.49,0,0,1-1.39-3c.44-2.95.95-5.9,1.55-8.82,2.21-10.76,7.22-18.69,19-21.41a185,185,0,0,0,24-7,21.91,21.91,0,0,0,3.14-1.57c1.19-.67,2.3-1.58,3.77-.81s1.63,2.26,1.58,3.76C261.73,609.24,261.75,609.78,261.75,610.33Z" transform="translate(-0.87 -288.41)"/><path class="cls-17" d="M237.48,654c-2.34.53-4.08-1.21-6.24-1.3-.75,0-.2-1.18,0-1.86,2.23-6.28,6.56-10.93,11.64-15,4.53-3.61,9.32-6.54,15.41-6.62a26.75,26.75,0,0,1,4.83.53c4.24.72,5,2.36,2.81,6.13-3.3,5.64-8.19,9.64-13.7,12.93C247.67,651.54,243,654.14,237.48,654Z" transform="translate(-0.87 -288.41)"/><path class="cls-12" d="M329.9,600.13a13.35,13.35,0,0,1,7.34,1.4c3,1.57,3.43,3.1.92,5.54a30.73,30.73,0,0,1-14,7.41c-5.28,1.39-10.54,2.57-16,.76a1.52,1.52,0,0,0-1.07,0c-2.05,1.12-1.74-.31-1.37-1.36a16.08,16.08,0,0,1,5-7.64C316.27,602,322.37,599.18,329.9,600.13Z" transform="translate(-0.87 -288.41)"/><path class="cls-22" d="M321.71,642.37c-1.09,0-1.43-1-2.09-1.53a14.57,14.57,0,0,0-8.3-3.54,2.76,2.76,0,0,1-2.79-1.8C306.11,627.9,302,621,300,613.22c-.38-1.48-1.24-3.91.32-4.32s2,2.09,2.54,3.62c2.57,7.06,5.23,14.09,7.79,21.15.5,1.37,1.59,1.64,2.73,1.86,3.18.62,5.5,2.64,7.79,4.71C321.76,640.81,322.26,641.44,321.71,642.37Z" transform="translate(-0.87 -288.41)"/><path class="cls-19" d="M306.87,664.79c5.6,2,9.29-1.69,12.76-6.09,1.61-2.05,4.09-2.92,6.36-4a1.7,1.7,0,0,1,2.38.6,1.53,1.53,0,0,1-.62,2.14c-4.68,1.93-7.3,6.45-11.48,9-2.16,1.3-4.63,2.47-7.21,1.41-2.95-1.21-5.38-.52-7.84,1.16-.54.38-1.35,1.83-2.14.42-.59-1,.58-1.61,1.32-2C302.24,666.33,303.63,664.29,306.87,664.79Z" transform="translate(-0.87 -288.41)"/><path class="cls-23" d="M275.71,627.61a44.31,44.31,0,0,1-6.61,13.75c-5,7.27-12.08,12.15-19.5,16.57-1.5.9-3.41,1.11-5.12,1.66-.69.22-1.51.67-1.87-.26s.4-1.48,1.26-1.65c5.6-1.09,10-4.48,14.36-7.76a43.94,43.94,0,0,0,15.42-20.86A14.42,14.42,0,0,0,274,627c.15-.83-.49-1.94.69-2.39C275.32,624.34,275.8,625.5,275.71,627.61Z" transform="translate(-0.87 -288.41)"/><path class="cls-14" d="M287.36,659.42c.94-.11,1.33.42,1.4,1.42a27,27,0,0,0,.51,4.31c.84,3.38,2.45,6.23,5.9,7.63,1.15.47,2.76.87,2.14,2.54-.54,1.5-1.92.7-3.07.55-6.3-.86-9.53-10.36-8.94-14.53A2,2,0,0,1,287.36,659.42Z" transform="translate(-0.87 -288.41)"/><path class="cls-24" d="M334.93,651.87a9.28,9.28,0,0,1-2.1,5.68c-.31.38-.7,1-1.32.48-.47-.39,0-.79.13-1.2,2.42-6.26,1.08-9.36-5.26-12.1-1.06-.46-2.13-.91-1.64-2.32s1.58-1.16,2.71-.82A11.37,11.37,0,0,1,334.93,651.87Z" transform="translate(-0.87 -288.41)"/><path class="cls-2" d="M319.68,624.41c-1.79-.41-3.84-.31-5.53-1.54-.36-.27-.71-.64-.35-1.11.24-.32.6-.15,1-.06a28.52,28.52,0,0,0,23.62-4.3c.64-.44,1.23-1,1.87-.21s0,1.49-.63,2a18,18,0,0,1-9.06,3.95C327,623.78,323.41,624,319.68,624.41Z" transform="translate(-0.87 -288.41)"/><path class="cls-19" d="M719.34,743.11c-.42-2.92,1.09-5.36,1.28-8,.25-3.5,1-7,1.47-10.44a9.13,9.13,0,0,0-2-7.64c-2.44-2.77-3.88-6.11-5.7-9.24-.5-.86-.9-1.71.08-2.38,1.14-.77,2,0,2.4.94,1.77,4,4.2,7.59,6.36,11.36,1.4,2.44,1.34,5.08.72,7.87-1,4.65-1.58,9.41-2.54,14.08C721.2,740.81,721.27,742.44,719.34,743.11Z" transform="translate(-0.87 -288.41)"/><path class="cls-1" d="M164.89,1022.74c-4.21-.34-8.77-.36-13.2-1.49A8.63,8.63,0,0,1,145,1013c-.12-2.17-.37-4.34-.42-6.51-.06-2.35,1-3.07,3.29-2.4a48,48,0,0,0,30-.44c3-1.06,3.75-.55,4.37,2.71a15.22,15.22,0,0,1,0,6.48c-1.67,7-4.84,9.4-13.21,9.87C167.74,1022.8,166.47,1022.74,164.89,1022.74Z" transform="translate(-0.87 -288.41)"/><path class="cls-1" d="M336,572c-1.07-2.14-1.12-4.2-2.41-5.79-.46-.57-.4-1.9.62-1.91a1.88,1.88,0,0,1,1.78,2C335.55,568.08,336.19,569.79,336,572Z" transform="translate(-0.87 -288.41)"/><path class="cls-1" d="M329.52,560.14v-3.2a2,2,0,0,1,1.64,2.2c-.1,1-1,.85-1.66,1Z" transform="translate(-0.87 -288.41)"/><path class="cls-1" d="M318.6,542.34c-.08.37-.26.69-.68.68-.74,0-.85-.54-.83-1.11,0-.36.16-.76.61-.71C318.33,541.27,318.56,541.75,318.6,542.34Z" transform="translate(-0.87 -288.41)"/><path class="cls-4" d="M762.54,594.16a98.48,98.48,0,0,1-6.14,8.14,117.13,117.13,0,0,0-11.51,15.1c-5.8,8.86-13.7,13.64-24.21,14.42-6.42.48-12.81,1.22-19.21,1.87-6.62.68-12-1.64-16.52-6.45-6.05-6.41-10.87-13.82-16.85-20.29a3.65,3.65,0,0,1-.81-1.4c-.46-1.51-.68-3.11.62-4.3.78-.71,5.19.71,5.59,1.79,2.85,7.82,9.8,10.56,16.73,12.48,19.81,5.49,38.39,2,55.47-9.28a59.74,59.74,0,0,0,8.06-6.87c2.47-2.37,5.42-3.9,8.22-5.7Z" transform="translate(-0.87 -288.41)"/><path class="cls-4" d="M747.44,600.21c-1.92,2.39-4.57,4-7.2,5.5-12.35,7.28-25.76,10-40,8.74a45.06,45.06,0,0,1-18.75-6,12.63,12.63,0,0,1-4.77-4.58C700.41,603.87,723.81,600.52,747.44,600.21Z" transform="translate(-0.87 -288.41)"/><path class="cls-4" d="M757.38,592.24c-3,2.69-6.15,3.57-9.29,4.28-5.26,1.19-10.66.49-16,1-15.24,1.51-30.57,1.77-45.78,3.57-4.74.56-9.35-.47-14-1.46-.93-.2-1.87-.36-3.18-.62,4.78-3.1,9.79-4.71,14.91-6.19,7-2,13.94-1.53,20.94-.51a20.76,20.76,0,0,0,13.82-2.93c3.81-2.24,7.77-2.09,11.85-1.36C739.34,589.59,747.73,592.49,757.38,592.24Z" transform="translate(-0.87 -288.41)"/><path class="cls-25" d="M739.51,481.05c3.52-2.22,6.85-4.79,11.24-6,0,2.32-1.07,4.49-.13,6.7.25.59-.33.92-1,.86l-9.91-.86Z" transform="translate(-0.87 -288.41)"/><path class="cls-26" d="M776.55,481.34c.37-2.48,1.41-4.54,1-7,4.08,1.25,7.56,3.28,12.11,3.58A87.71,87.71,0,0,1,776.55,481.34Z" transform="translate(-0.87 -288.41)"/><path class="cls-27" d="M664.82,493.81a12.35,12.35,0,0,0-.47-5.47l11.84,2.58A33.15,33.15,0,0,1,664.82,493.81Z" transform="translate(-0.87 -288.41)"/><path class="cls-28" d="M642.26,491.89c.48,5.21.48,5.21-4.52,5.46a11.46,11.46,0,0,1-4.26-.32C636.12,494.52,639.27,493.67,642.26,491.89Z" transform="translate(-0.87 -288.41)"/><path class="cls-4" d="M839.62,1085.24c6.76.23,13.39-1.15,20.06-.1a28.12,28.12,0,0,0,13.19-.71,45.53,45.53,0,0,1,16.28-2.48,21.17,21.17,0,0,0,11.05-2.3,3.34,3.34,0,0,1,2.95-.53c-6.4,4.89-10.61,12.06-18.56,14.73a29.35,29.35,0,0,1-7.1,1.6c-7,.53-14,1.94-21.07.44-2.19-.46-3.95-1.7-5.86-2.72C846.56,1091,843.54,1087.6,839.62,1085.24Z" transform="translate(-0.87 -288.41)"/><path class="cls-5" d="M894.51,1078.24c-4.47,1.14-8.9.49-13.31,1.11a73,73,0,0,0-9.22,2.14,30.9,30.9,0,0,1-12.37.48,70.9,70.9,0,0,0-13-.17,37.28,37.28,0,0,1-15-2,2.59,2.59,0,0,1,2.44-.21c4.83,1.83,9.38.57,13.92-1.09,5-1.81,10.06-3,15.4-2.5,3.34.34,6.44-.86,9.62-1.41a26.84,26.84,0,0,1,14.66,1.41C889.89,1076.86,892.22,1077.5,894.51,1078.24Z" transform="translate(-0.87 -288.41)"/><path class="cls-29" d="M914.3,986.58c2.7-3.51,2.82-6.81,2.29-10.34,3.72.53,6.36,2.53,8.88,4.74.9.79.7,1.22-.32,1.73A49.47,49.47,0,0,1,914.3,986.58Z" transform="translate(-0.87 -288.41)"/><path class="cls-30" d="M897.17,976.31a19.75,19.75,0,0,0-1.07,8.94c.14,1.36-.29,1.65-1.67,1.51a43.78,43.78,0,0,1-7.43-1.7C890.32,982.06,892,977.62,897.17,976.31Z" transform="translate(-0.87 -288.41)"/><path class="cls-31" d="M809.71,984.11c-.14,2.84-.25,5.19.65,7.44.37.91.37,1.4-.88,1.5a95.51,95.51,0,0,1-13.26-.15C800.46,989.19,804.54,986.18,809.71,984.11Z" transform="translate(-0.87 -288.41)"/><path class="cls-32" d="M836.93,989.75a34.14,34.14,0,0,1-7.82,1.54,14.89,14.89,0,0,0,.85-7.24A33.8,33.8,0,0,1,836.93,989.75Z" transform="translate(-0.87 -288.41)"/><path class="cls-6" d="M89.5,890.75c2.28-2.66,4.79-4.22,7.12-6,1-.76,1.23.08,1.27.86a7.21,7.21,0,0,0,.52,3.16c1.24,2.21.65,3-1.84,2.64C94.38,891.14,92.17,891,89.5,890.75Z" transform="translate(-0.87 -288.41)"/><path class="cls-33" d="M119.83,887.39c0-.08-.13-.16-.13-.24-.09-5.37-.08-5.37,4.69-3.29.9.39,1.76.86,2.7,1.33A21.92,21.92,0,0,1,119.83,887.39Z" transform="translate(-0.87 -288.41)"/><path class="cls-34" d="M185,884.83c-1.71-.38-2.67-.53-3.59-.82-1.59-.51-4.8-.22-4.46-1.55a8.94,8.94,0,0,1,4.91-5.46c1.17-.54,1.15.28,1.22,1A14.67,14.67,0,0,0,185,884.83Z" transform="translate(-0.87 -288.41)"/><path class="cls-35" d="M210.59,878.37a21.37,21.37,0,0,1-8.16,3.72,1,1,0,0,1,.08-1.24c.93-1.45-.26-4.33,1.38-4.51C205.89,876.12,208.07,877.53,210.59,878.37Z" transform="translate(-0.87 -288.41)"/><path class="cls-4" d="M925.38,695.81c7.3-1.57,14.24-3.33,21.75-1.25,12.76,3.53,25.73,6.32,38.31,10.53a78.76,78.76,0,0,1,10,4.31c-5.41,2-10.82,3.67-16.57,3.84-11.25.33-22-2.53-32.58-5.74a93.15,93.15,0,0,1-11.17-3.94A25.3,25.3,0,0,1,925.38,695.81Z" transform="translate(-0.87 -288.41)"/><path class="cls-4" d="M998,712.47c-6.83,7.44-14,12.4-23.69,13.23A65.59,65.59,0,0,1,942,720.52c-8.86-3.9-15.81-10.35-19.08-20A37,37,0,0,0,920.6,696c1.29,0,2.41-.86,3.33.61,3.89,6.27,10,9.44,16.68,11.74a182.59,182.59,0,0,0,22.26,6.47C974,717.13,985.15,717,996,712.86A17.39,17.39,0,0,1,998,712.47Z" transform="translate(-0.87 -288.41)"/><path class="cls-4" d="M919.76,692.33c10.13-5.54,20.41-10.57,32.39-10.21a16.31,16.31,0,0,1,5.59.91c6.73,2.71,13.9,3.77,20.81,5.76,10.12,2.9,18.15,8.66,22.82,18.87-6-1.56-11-4.57-16.61-6.3-11-3.42-22.33-5.86-33.38-9.12-8.56-2.53-16.73-2.13-25.07-.08C924.13,692.7,922,692.35,919.76,692.33Z" transform="translate(-0.87 -288.41)"/><path class="cls-7" d="M922.64,600.17a18.58,18.58,0,0,0-.57,12L906.61,608C912.12,605.21,916.74,601.89,922.64,600.17Z" transform="translate(-0.87 -288.41)"/><path class="cls-7" d="M938.69,613.85a14,14,0,0,0,2.55-9c3.53,2,6.16,4.65,9.08,7C948.41,613.08,942.49,614.1,938.69,613.85Z" transform="translate(-0.87 -288.41)"/><path class="cls-7" d="M1021,628.45a11.61,11.61,0,0,0,4.36-9.29c3.14,2,5,4.8,7.14,7.69C1028.8,628.2,1025.18,628.1,1021,628.45Z" transform="translate(-0.87 -288.41)"/><path class="cls-26" d="M998.75,621.82a19.65,19.65,0,0,1,8.45-5.37c-1.33,3.06-2,5.88-.68,9.29Z" transform="translate(-0.87 -288.41)"/><path class="cls-4" d="M518.79,650.22c-4.34,4.61-8.85,8.75-14.34,11.62-5.87,3.06-12.15,5.19-18.36,7.46-7.2,2.64-14.31.93-21.39-.71a42.58,42.58,0,0,1-16.22-7.53,64.28,64.28,0,0,1,10.29-.1c12.07,1.11,24.15,1.44,35.73-2.89,7-2.63,14.06-5.22,21.19-7.51A4.59,4.59,0,0,1,518.79,650.22Z" transform="translate(-0.87 -288.41)"/><path class="cls-7" d="M505.14,650.08c-9.91,6.68-26.11,9.17-46.9,7.44,1.54-1.24,3.32-1.2,4.87-1.76,5.55-2,11.14-3.59,17.14-2.09a9.24,9.24,0,0,0,4.54-.46C491.25,651.48,497.77,650,505.14,650.08Z" transform="translate(-0.87 -288.41)"/><path class="cls-29" d="M419.12,569.32c-3.63-.31-6.55-.68-9-2.66-.91-.75-1.44-1.3-.18-2.23,2-1.47,3.63-3.46,6.49-4.17A13.91,13.91,0,0,0,419.12,569.32Z" transform="translate(-0.87 -288.41)"/><path class="cls-27" d="M436.6,557.61c3.68,1.8,6.06,4.3,9.53,6.45l-9.71,2.75C437.32,563.74,438.16,560.92,436.6,557.61Z" transform="translate(-0.87 -288.41)"/><path class="cls-36" d="M521.26,544.2c3.11.6,4.55,2.64,5.93,4.79.44.69.44,1.09-.34,1.46-1.85.88-3.68,1.8-6.07,3C522.07,550.14,521.85,547.33,521.26,544.2Z" transform="translate(-0.87 -288.41)"/><path class="cls-25" d="M500.33,548.67c.43,2.62.73,5.11,2.81,7.41a55.3,55.3,0,0,1-5.85-.05c-1.78-.2-2.58-1.22-1.45-3A10.83,10.83,0,0,1,500.33,548.67Z" transform="translate(-0.87 -288.41)"/><path class="cls-8" d="M239.54,642.3c1.55,3.36,4.22,5.24,7.94,6.27-3.93,2.59-7.83,4-12.29,3.55-1.92-.21-2.51-1.15-1.33-2.91A38.43,38.43,0,0,1,239.54,642.3Z" transform="translate(-0.87 -288.41)"/><path class="cls-9" d="M259.47,639.67c-.49-2.81-1.91-4.81-3.3-7a15.36,15.36,0,0,1,6.15.17c1.21.37,1.42.91.71,1.9Z" transform="translate(-0.87 -288.41)"/><path class="cls-8" d="M327.59,602.91c1.82.6,3.93.24,6,.6.56.11,1.31.3,1.45,1s-.48.91-.89,1.23a24.79,24.79,0,0,1-5.87,3.79c-1.42.59-1.82.17-1.66-1.17a5.23,5.23,0,0,0-.78-3.36C324.4,602.74,326,603,327.59,602.91Z" transform="translate(-0.87 -288.41)"/><path class="cls-37" d="M307.88,613.41c2-3.21,2-3.21,5.79.54A16.92,16.92,0,0,1,307.88,613.41Z" transform="translate(-0.87 -288.41)"/></g><g id="logocrypto_Image" data-name="logocryptoImage"><path class="cls-38" d="M317.64,997.84a212,212,0,0,0,12.63,62.74c5.6,15.09,13,29.16,23.55,41.48,6.24,7.28,12.18,14.8,19.09,21.51a192.83,192.83,0,0,0,27.55,22.29,190.18,190.18,0,0,0,37.89,19.44,201.75,201.75,0,0,0,38.85,10.36,190.48,190.48,0,0,0,43.06,1.92,181.58,181.58,0,0,0,37.75-6.42,201.06,201.06,0,0,0,27.53-9.79A189.86,189.86,0,0,0,612,1146.89a179.15,179.15,0,0,0,26.26-20.84,174.79,174.79,0,0,0,27.5-33.76,171,171,0,0,0,13.52-26.43c1.08-2.67,2-5.4,3-8.09.55-1.48,1.14-3,1.78-4.6,12.12-.51,24-1.45,36.35-1.16a21.48,21.48,0,0,1-.2,3.38,174.86,174.86,0,0,1-9.71,29.06,213.73,213.73,0,0,1-51.28,73.37A218.13,218.13,0,0,1,618,1188.19a227.3,227.3,0,0,1-23.22,11.45A221.36,221.36,0,0,1,556,1212c-8,1.78-16.06,2.85-24.14,3.92a196.89,196.89,0,0,1-34.5,1.14,224.67,224.67,0,0,1-46-6.68,237.85,237.85,0,0,1-44.52-16.22,229.43,229.43,0,0,1-81.52-66.3,230.11,230.11,0,0,1-20.73-32.22,233.3,233.3,0,0,1-15-35.77c-3.65-10.92-6.77-22-8.24-33.46-.67-5.22-1.84-10.38-2.58-15.59-1.42-10-1.34-20.09-1-30.16.28-8,1.82-15.87,3.13-23.75,3.61-21.77,10.67-42.45,20.14-62.31a234.49,234.49,0,0,1,31.21-48.76,237.92,237.92,0,0,1,45.54-42.34,226.35,226.35,0,0,1,42.58-23.92,230,230,0,0,1,40.13-12.87,223.21,223.21,0,0,1,46.62-5.34,213.33,213.33,0,0,1,55.07,6.85A216.33,216.33,0,0,1,658,821.49a218.73,218.73,0,0,1,30.48,36.3,226.31,226.31,0,0,1,27.22,55.87c2,6.22,3.46,12.63,5.11,19a20.94,20.94,0,0,1,.34,3,11.85,11.85,0,0,1-2.38.55c-10.85.09-21.69.61-32.75.44-1.17-3.39-2.34-6.52-3.34-9.7a152.27,152.27,0,0,0-12.74-28.39,174.87,174.87,0,0,0-20.72-29.34,188.61,188.61,0,0,0-21.56-21.12A185.75,185.75,0,0,0,592,824.7a207.41,207.41,0,0,0-29.29-11.89,196.47,196.47,0,0,0-39.87-8.11,170.79,170.79,0,0,0-39.27.25c-6,.76-12.05,1.6-18,2.75a185.65,185.65,0,0,0-107.77,64.38,167.19,167.19,0,0,0-18.92,27.65,180.62,180.62,0,0,0-12.22,29.14,176.91,176.91,0,0,0-8.39,38.31A206.57,206.57,0,0,0,317.64,997.84Z" transform="translate(-0.87 -288.41)"/><path class="cls-39" d="M390.37,1019.68a116.78,116.78,0,0,0,15.41,36,121.61,121.61,0,0,0,77.89,54,111.3,111.3,0,0,0,35.29,1.91,117.08,117.08,0,0,0,56.27-21.42c18-13,31-29.84,39.82-50a123.25,123.25,0,0,0,7.55-25.23c.15-.78.33-1.55.55-2.56,4.1-.71,27.74-1.16,38.68-.78a23.42,23.42,0,0,1,2.48.37,55.68,55.68,0,0,1-1.3,13,163.37,163.37,0,0,1-32,65.85,156.75,156.75,0,0,1-35.68,32.51,161.19,161.19,0,0,1-45.19,20.59c-18.43,5.23-37.16,6.47-56.09,5a151.84,151.84,0,0,1-51.59-13.88,160.47,160.47,0,0,1-61.31-49.51,163.4,163.4,0,0,1-18-30c-.74-1.58-1.54-3.13-2.29-4.65a5.77,5.77,0,0,0-1.51-.4q-10.29.48-20.58,1c-1.76.09-3.51.26-5.27.35a2.33,2.33,0,0,1-2.53-1.76c-.59-2-1.12-4-1.67-6a203.52,203.52,0,0,1-5.07-23.9c-.23-1.56-.31-3.15-.47-4.92a20.35,20.35,0,0,1,3-.49q29.76-.12,59.52-.16c.78,0,1.56.13,2.48.21A18.66,18.66,0,0,1,390.37,1019.68Z" transform="translate(-0.87 -288.41)"/><path class="cls-39" d="M326.87,945.35c1.59-.89,3.39-.47,5.11-.44,6.39.13,12.79.33,19.18.5a27.67,27.67,0,0,0,2.88,0c1.78-.15,2.81-.88,2.88-2.6.09-2.34,1.15-4.29,2-6.34A163.43,163.43,0,0,1,372,911.41a160.62,160.62,0,0,1,14-18.87A166.1,166.1,0,0,1,419.23,863a169.89,169.89,0,0,1,26-14.24,161.25,161.25,0,0,1,45.19-12.28,145.06,145.06,0,0,1,29.69-.71,157.92,157.92,0,0,1,28.78,4.94q51.34,13.95,83.28,56.57A153.37,153.37,0,0,1,658.07,953a95.45,95.45,0,0,1,3.14,23.71c0,1.23-.22,2.47-.35,3.76-1.88.79-3.66.5-5.38.51-21,.08-41.91.1-62.86.19q-66.47.27-132.93.58c-1.87,0-3.81.32-5.49-.38-.24-.5-.5-.78-.5-1q.07-16.79.21-33.56a10.71,10.71,0,0,1,.26-1.7c1.37-1.26,2.88-.9,4.26-.93,11.51-.24,23-.43,34.54-.64l90.2-1.63c7.52-.13,15-.22,22.55-.42,1.36,0,2.9.37,4.23-1a7.1,7.1,0,0,0-.57-1.64,121.07,121.07,0,0,0-23.72-28.1,118.92,118.92,0,0,0-31.73-19.48,129.34,129.34,0,0,0-31.88-8.54,125.64,125.64,0,0,0-45.28,2.16,120.22,120.22,0,0,0-48.23,22.65c-16.35,12.83-28.4,28.88-35.3,48.6a102.44,102.44,0,0,0-4.61,20.54c-.21,1.56-.43,3.11-.68,4.89a23.35,23.35,0,0,1-2.94.37q-30,0-60-.06c-.78,0-1.56-.12-2.82-.22-.63-4.06-.15-7.73.2-11.33C323.71,956.73,325,950.06,326.87,945.35Z" transform="translate(-0.87 -288.41)"/><path d="M390.39,1009.76c1.06,3.42,2.14,6.58,3,9.78a123.13,123.13,0,0,0,47.73,67.06,111.14,111.14,0,0,0,21.36,11.81c17.58,7.21,35.82,10.56,54.89,8.64a115.32,115.32,0,0,0,30.25-7.21A109.85,109.85,0,0,0,579.21,1081a112.84,112.84,0,0,0,21.74-24.8,120.88,120.88,0,0,0,14-30.36,66.75,66.75,0,0,0,1.8-6.47c.53-2.65.81-5.36,1.18-8,.17-1.24.29-2.48.41-3.48,1.52-1.27,3-.95,4.41-1,12.8-.13,25.6-.22,38.39-.34,1.44,0,2.88-.15,4.31-.17,2.13,0,3.39.88,3.54,3a44,44,0,0,1-.11,7.17,118.43,118.43,0,0,1-8.29,32.89,176.73,176.73,0,0,1-12.22,25,164.45,164.45,0,0,1-15.57,21.86,161,161,0,0,1-44.39,36.93,164,164,0,0,1-29.78,13.15,172.46,172.46,0,0,1-30.36,6.86,141.62,141.62,0,0,1-39.71,0A203.07,203.07,0,0,1,467,1149a159.16,159.16,0,0,1-50.38-23,163.15,163.15,0,0,1-44-44.34c-2.74-4.13-5.36-8.35-7.8-12.65s-4.42-8.51-6.73-13c-2.21-1-4.78-.48-7.3-.41s-5.12.14-7.67.33-5.08,0-7.84.88c.31,1.09.49,2,.82,2.83A173.73,173.73,0,0,0,380,1123.53a183,183,0,0,0,42,29.19,188.82,188.82,0,0,0,54.49,17.8,183.77,183.77,0,0,0,46.38,1.89,189.89,189.89,0,0,0,50-11.08,183.45,183.45,0,0,0,33.5-16.5A180.36,180.36,0,0,0,634,1123.51a171,171,0,0,0,21.52-24.46,178.34,178.34,0,0,0,21.91-40.34c.87-2.23,1.42-4.57,2.14-6.86,1.12-3.53,2-3.53,4.74-3.62,9.44-.29,18.87-.68,28.3-1,2.08-.08,4.15-.24,6.23-.37,1-.06,1.91-.19,2.87-.2,3.14,0,4.32,1.17,4,4.42a51.08,51.08,0,0,1-1,6.64,156.74,156.74,0,0,1-7.3,22.8,226.55,226.55,0,0,1-11.27,24.36,218.54,218.54,0,0,1-47.27,60,223.54,223.54,0,0,1-76.45,44.85,232.81,232.81,0,0,1-165.1-5.46A247.72,247.72,0,0,1,392,1191.8a228.12,228.12,0,0,1-29.08-19.46,231.53,231.53,0,0,1-25.21-22.87,235.86,235.86,0,0,1-21.52-26.36,226.2,226.2,0,0,1-20-34.37c-11-23.46-18.89-47.85-21.76-73.7a233.29,233.29,0,0,1-1.28-31.61A199.76,199.76,0,0,1,283,926c1.38-4.24,3-8.42,4.71-12.56,5.48-13.49,11.47-26.74,19-39.26a254,254,0,0,1,27-37.22,240,240,0,0,1,51.51-44.22,228.65,228.65,0,0,1,54.58-25.57,224.06,224.06,0,0,1,80.45-10.43,222.87,222.87,0,0,1,94.68,27,217.39,217.39,0,0,1,33,22.2A220.66,220.66,0,0,1,670,826.56a199.67,199.67,0,0,1,21.25,26.56c3.51,5.34,7,10.7,10.2,16.23A234.52,234.52,0,0,1,715.9,899.6c4.19,10.42,7,21.24,10.26,31.93a26.61,26.61,0,0,1,1,5.18c.29,3.1-.61,4.13-3.6,4.42-.79.07-1.59.06-2.39.06-10.72,0-21.44.1-32.16.11-5,0-5.89-.65-7.69-5.48-1.68-4.49-3.1-9.08-4.91-13.52a177.05,177.05,0,0,0-37-56.71,184.26,184.26,0,0,0-52.17-37.79,186.91,186.91,0,0,0-37.39-13.48,193.13,193.13,0,0,0-71-3.89A182.19,182.19,0,0,0,437.15,821a178.79,178.79,0,0,0-83,64.25,162.91,162.91,0,0,0-23.81,49.45c-.26.92-.52,1.84-.7,2.78a13,13,0,0,0-.13,1.87c3.44.84,17.18,1.17,22.56.54a4.14,4.14,0,0,0,.79-1A158.26,158.26,0,0,1,368.32,908a169.52,169.52,0,0,1,49.17-49.85,170.19,170.19,0,0,1,47.83-21.76,162.52,162.52,0,0,1,46-5.86A156.51,156.51,0,0,1,650,916.71a161.81,161.81,0,0,1,15.42,48.21,62.84,62.84,0,0,1,1.15,13.35c0,.64,0,1.28,0,1.92-.66,6.06-1.73,5.72-6.14,5.73l-75.84.2-128.15.38c-1.6,0-3.21,0-4.8-.09a2.52,2.52,0,0,1-2.57-2.38,25.69,25.69,0,0,1-.23-3.82q.07-17.76.19-35.51c0-.64,0-1.28.06-1.91.22-2,1-2.86,3-3,.8-.07,1.6,0,2.4-.07l107-2.1q18.48-.37,36.95-.81c.79,0,1.57-.13,2.74-.23a9.82,9.82,0,0,0-.78-2.24,98.55,98.55,0,0,0-16.78-19,112.42,112.42,0,0,0-30.78-19.23,123.46,123.46,0,0,0-49.08-9.56,121.45,121.45,0,0,0-40,7.11c-19.23,6.79-35.76,17.79-48.87,33.5-11.38,13.63-19,29.14-21.73,46.85-.54,3.47-1.28,6.91-2,10.35a13.59,13.59,0,0,1-.71,2c-1.89,1-3.68.62-5.41.62q-28.56,0-57.12-.1c-1.72,0-3.49-.27-5.08.4-1.1,5.12-.65,16.16.9,22.19,1.52.74,3.3.44,5,.43q28.08-.1,56.16-.26C386.7,1009.63,388.43,1009.71,390.39,1009.76Zm-61.07,34.16c.55,2,1.08,4,1.67,6a2.33,2.33,0,0,0,2.53,1.76c1.76-.09,3.51-.26,5.27-.35q10.29-.52,20.58-1a5.77,5.77,0,0,1,1.51.4c.75,1.52,1.55,3.07,2.29,4.65a163.4,163.4,0,0,0,18,30,160.47,160.47,0,0,0,61.31,49.51A151.84,151.84,0,0,0,494,1148.74c18.93,1.52,37.66.28,56.09-5a161.19,161.19,0,0,0,45.19-20.59A156.75,156.75,0,0,0,631,1090.69a163.37,163.37,0,0,0,32-65.85,55.68,55.68,0,0,0,1.3-13,23.42,23.42,0,0,0-2.48-.37c-10.94-.38-34.58.07-38.68.78-.22,1-.4,1.78-.55,2.56a123.25,123.25,0,0,1-7.55,25.23c-8.78,20.2-21.81,37.08-39.82,50A117.08,117.08,0,0,1,519,1111.52a111.3,111.3,0,0,1-35.29-1.91,121.61,121.61,0,0,1-77.89-54,116.78,116.78,0,0,1-15.41-36,18.66,18.66,0,0,0-1.59-5c-.92-.08-1.7-.21-2.48-.21q-29.76.06-59.52.16a20.35,20.35,0,0,0-3,.49c.16,1.77.24,3.36.47,4.92A203.52,203.52,0,0,0,329.32,1043.92Zm-6.91-73.62c-.35,3.6-.83,7.27-.2,11.33,1.26.1,2,.22,2.82.22q30,0,60,.06a23.35,23.35,0,0,0,2.94-.37c.25-1.78.47-3.33.68-4.89a102.44,102.44,0,0,1,4.61-20.54c6.9-19.72,18.95-35.77,35.3-48.6a120.22,120.22,0,0,1,48.23-22.65,125.64,125.64,0,0,1,45.28-2.16,129.34,129.34,0,0,1,31.88,8.54,118.92,118.92,0,0,1,31.73,19.48,121.07,121.07,0,0,1,23.72,28.1,7.1,7.1,0,0,1,.57,1.64c-1.33,1.36-2.87.95-4.23,1-7.51.2-15,.29-22.55.42L493,943.5c-11.51.21-23,.4-34.54.64-1.38,0-2.89-.33-4.26.93a10.71,10.71,0,0,0-.26,1.7q-.14,16.77-.21,33.56c0,.27.26.55.5,1,1.68.7,3.62.39,5.49.38q66.46-.27,132.93-.58c21-.09,41.91-.11,62.86-.19,1.72,0,3.5.28,5.38-.51.13-1.29.33-2.53.35-3.76A95.45,95.45,0,0,0,658.07,953a153.37,153.37,0,0,0-25.85-55.73q-31.85-42.69-83.28-56.57a157.92,157.92,0,0,0-28.78-4.94,145.06,145.06,0,0,0-29.69.71,161.25,161.25,0,0,0-45.19,12.28,169.89,169.89,0,0,0-26,14.24A166.1,166.1,0,0,0,386,892.54a160.62,160.62,0,0,0-14,18.87,163.43,163.43,0,0,0-13.08,25.06c-.85,2-1.91,4-2,6.34-.07,1.72-1.1,2.45-2.88,2.6a27.67,27.67,0,0,1-2.88,0c-6.39-.17-12.79-.37-19.18-.5-1.72,0-3.52-.45-5.11.44C325,950.06,323.71,956.73,322.41,970.3Zm-17.77,125.34a230.11,230.11,0,0,0,20.73,32.22,228.23,228.23,0,0,0,81.52,66.3,237.85,237.85,0,0,0,44.52,16.22,224.67,224.67,0,0,0,46,6.68,196.89,196.89,0,0,0,34.5-1.14c8.08-1.07,16.19-2.14,24.14-3.92a221.36,221.36,0,0,0,38.77-12.36A227.3,227.3,0,0,0,618,1188.19a218.13,218.13,0,0,0,41.24-30.37,213.73,213.73,0,0,0,51.28-73.37,174.86,174.86,0,0,0,9.71-29.06,21.48,21.48,0,0,0,.2-3.38c-12.32-.29-24.23.65-36.35,1.16-.64,1.65-1.23,3.12-1.78,4.6-1,2.69-1.92,5.42-3,8.09a171,171,0,0,1-13.52,26.43,174.79,174.79,0,0,1-27.5,33.76A179.15,179.15,0,0,1,612,1146.89a189.86,189.86,0,0,1-26.48,14.48,201.06,201.06,0,0,1-27.53,9.79,181.58,181.58,0,0,1-37.75,6.42,190.48,190.48,0,0,1-43.06-1.92,201.75,201.75,0,0,1-38.85-10.36,190.18,190.18,0,0,1-37.89-19.44,192.83,192.83,0,0,1-27.55-22.29c-6.91-6.71-12.85-14.23-19.09-21.51-10.56-12.32-17.95-26.39-23.55-41.48a212,212,0,0,1-12.63-62.74,206.57,206.57,0,0,1,.65-30.66,176.91,176.91,0,0,1,8.39-38.31,180.62,180.62,0,0,1,12.22-29.14,167.19,167.19,0,0,1,18.92-27.65A187.54,187.54,0,0,1,465.59,807.7c6-1.15,12-2,18-2.75a170.79,170.79,0,0,1,39.27-.25,196.47,196.47,0,0,1,39.87,8.11A207.41,207.41,0,0,1,592,824.7a185.75,185.75,0,0,1,35.63,23.35,188.61,188.61,0,0,1,21.56,21.12,174.87,174.87,0,0,1,20.72,29.34,152.27,152.27,0,0,1,12.74,28.39c1,3.18,2.17,6.31,3.34,9.7,11.06.17,21.9-.35,32.75-.44a11.85,11.85,0,0,0,2.38-.55,20.94,20.94,0,0,0-.34-3c-1.65-6.34-3.07-12.75-5.11-19a226.31,226.31,0,0,0-27.22-55.87A218.73,218.73,0,0,0,658,821.49a216.72,216.72,0,0,0-150.82-60.12,223.21,223.21,0,0,0-46.62,5.34,230,230,0,0,0-40.13,12.87,226.35,226.35,0,0,0-42.58,23.92,237.92,237.92,0,0,0-45.54,42.34A234.49,234.49,0,0,0,301.1,894.6c-9.47,19.86-16.53,40.54-20.14,62.31-1.31,7.88-2.85,15.74-3.13,23.75-.36,10.07-.44,20.15,1,30.16.74,5.21,1.91,10.37,2.58,15.59,1.47,11.48,4.59,22.54,8.24,33.46A233.3,233.3,0,0,0,304.64,1095.64Z" transform="translate(-0.87 -288.41)"/></g></svg>